<svg xmlns="http://www.w3.org/2000/svg" width="800" height="800" viewBox="0 0 800 800"><path fill="#cc1d51" d="M402.1 84.8h3c9.8 0 18.2.9 26.6 6 2.6 1.4 5.1 2 8 2.8 5 1.2 7.5 3 11.3 6.4l3.5 2a83 83 0 0 1 30.5 32v2q.9.2 2 .7c3 2 3.1 4 4 7.7 1.6 6.2 1.6 6.2 4 8.8 5.3 7.4 4.4 18.3 4.7 26.9l.1 3.8q.4 14.2-.8 28 .9.7 1.8 1l2.4 1.4 2.4 1.3 4.5 3c2 1.5 2 1.5 5.4 2.8 3.5 1.5 3.5 1.5 5.3 3.5 2.5 2.4 4.6 3.2 8 4.2 2.8.8 2.8.8 5.2 1.8l1 3c2 1 2 1 5 2a54 54 0 0 1 14 8q3 1.8 6.1 3c2 1.2 2 1.2 4.4 3.2a18 18 0 0 0 6.4 3.3c3.1 1 4.4 1.8 7 4.2a18 18 0 0 0 7.6 4c4.4 1.1 6.3 3.1 9.5 6.3q3.3 1.8 6.8 3.2c2.2.8 2.2.8 4.8 3a12 12 0 0 0 6 2.8c3.4 1 3.4 1 5.7 3.5 2.7 2.7 4 3.2 7.4 4.4a31 31 0 0 1 14.3 11.1c2.4 5.6 2.3 10.9 2.2 16.8l.1 3.2v100.3l.1 37.8v38.9l.1 21.8v41.2a30 30 0 0 1-6.7 20.5c-3.2 1.9-6.4 3.1-9.8 4.6-2 1-2 1-4 3-2.8 2.8-5.9 3.5-9.6 5-2.3 1-3.7 2-5.5 3.6a13 13 0 0 1-7.2 3.5l-3.7.9-1 3c-1.8 1-1.8 1-4 1.9a23 23 0 0 0-8.5 5.1c-3.3 3-6.3 4-10.5 5.3-2 .7-2 .7-4.5 3.2-3 3-6 4-10.2 5.5-2.9 1.3-4.9 3-7.3 5l-6.9 3c-2 1-2 1-4.6 3-3 2.5-5.9 3.1-9.5 4-2 1-2 1-3 3-1.4 2.8-2.9 3-5.8 4a22 22 0 0 0-8.2 4.5c-3.5 2.9-6.6 4-10.8 5.5-2.7 1.3-4.2 2.9-6.2 5l-6.9 3c-2 1-2 1-4.6 3-2.4 2-4.3 2.9-7 4s-4.4 1.9-6.5 4c-2.8 2.8-6 3.6-9.7 5-2.8 1.1-4.2 2.9-6.3 5q-2.9 1.2-5.8 2a36 36 0 0 0-6.8 4 33 33 0 0 1-11.4 5l-.9 2c-1.5 2.9-2.9 3-5.9 4a26 26 0 0 0-9.5 5.8c-5 3.8-12.4 6.8-18.7 7.3-2-.9-2-.9-4-2.2l-2-1.4-2-1.4-2.7-1.5-5-3.5a30 30 0 0 0-7.4-3.5c-3-1-4-1.5-6.4-4a12 12 0 0 0-7-4c-4.4-1.2-6.3-3.2-9.5-6.5l-6.9-3q-3.9-2-7-5l-3.5-1.5a30 30 0 0 1-7-4c-3.3-2.5-6.8-4-10.6-5.5-2.7-1.2-4.7-3.1-7-5l-4.5-2a34 34 0 0 1-9.5-6q-5-2.7-10-5v-2l-2-.5a31 31 0 0 1-14-7.5l-4.5-2c-4.2-1.7-7-4.1-10.5-7l-7-3.1c-2-1-2-1-5-3v-2l-1.7-.4a36 36 0 0 1-12.5-6.2c-2.7-2-5.7-3-8.8-4.3-2-1-2-1-3.5-2.5-1.9-2-3.8-2.5-6.3-3.4-4.6-1.6-7.5-4-11.2-7.1l-7.6-3.9a56 56 0 0 1-8.4-5.1l-2.6-1c-2.4-1-2.4-1-4.6-2.9a29 29 0 0 0-10.5-4.6c-3.3-2.1-4.3-4.9-5.3-8.5q-.5-5.6-.4-11.1V304.8c0-8.7 0-8.7 3.4-12.9a53 53 0 0 1 15-9l3-2.3c3.4-3 6.7-4.2 11-5.7q1.5-.3 3-1l1-1.8c1.4-2.9 2.8-3.2 5.8-4.2a32 32 0 0 0 10.2-6q2.3-.8 4.5-2c2.7-1 4.6-2 7-4 2.4-1.8 4.3-2.7 7-4 2.8-1 4.3-1.7 6.4-4 3-2.7 6.1-3.6 9.8-5 2.3-1 2.3-1 4.3-3 2.8-2.7 6-3.6 9.6-5 3-1.2 5-2.8 7.4-5q5.2-3 11-5v-2l2-.6c8-3 8-3 11.1-5.9 3.5-3 6.5-4 11-5.5 1-1 1-1 1-4v-8.7l-.2-7.3c-.4-26-.4-26 5-34 2-3.7 3-7.7 4-11.8 1.2-3.3 2.8-5.3 5.1-8.2l2-4c1.7-3.7 4-6 7-9l1.4-2.4c1.7-2.7 3.6-4.3 6.1-6.2 1.5-1.2 1.5-1.2 3.7-3.6Q344 102.9 355 97l1.8-1.5c2.7-1.8 5-2.2 8.1-3 3.7-.7 6-1.3 9-3.5 8-5.2 19-4.2 28.2-4.2"/><path fill="#191012" d="M402.1 84.8h3c9.8 0 18.2.9 26.6 6 2.6 1.4 5.1 2 8 2.8 5 1.2 7.5 3 11.3 6.4l3.5 2a83 83 0 0 1 30.5 32v2q.9.2 2 .7c3 2 3.1 4 4 7.7 1.6 6.2 1.6 6.2 4 8.8 5.3 7.4 4.4 18.3 4.7 26.9l.1 3.8q.4 14.2-.8 28 .9.7 1.8 1l2.4 1.4 2.4 1.3 4.5 3c2 1.5 2 1.5 5.4 2.8 3.5 1.5 3.5 1.5 5.3 3.5 2.5 2.4 4.6 3.2 8 4.2 2.8.8 2.8.8 5.2 1.8l1 3c2 1 2 1 5 2a54 54 0 0 1 14 8q3 1.8 6.1 3c2 1.2 2 1.2 4.4 3.2a18 18 0 0 0 6.4 3.3c3.1 1 4.4 1.8 7 4.2a18 18 0 0 0 7.6 4c4.4 1.1 6.3 3.1 9.5 6.3q3.3 1.8 6.8 3.2c2.2.8 2.2.8 4.8 3a12 12 0 0 0 6 2.8c3.4 1 3.4 1 5.7 3.5 2.7 2.7 4 3.2 7.4 4.4a31 31 0 0 1 14.3 11.1c2.4 5.6 2.3 10.9 2.2 16.8l.1 3.2v100.3l.1 37.8v38.9l.1 21.8v41.2a30 30 0 0 1-6.7 20.5c-3.2 1.9-6.4 3.1-9.8 4.6-2 1-2 1-4 3-2.8 2.8-5.9 3.5-9.6 5-2.3 1-3.7 2-5.5 3.6a13 13 0 0 1-7.2 3.5l-3.7.9-1 3c-1.8 1-1.8 1-4 1.9a23 23 0 0 0-8.5 5.1c-3.3 3-6.3 4-10.5 5.3-2 .7-2 .7-4.5 3.2-3 3-6 4-10.2 5.5-2.9 1.3-4.9 3-7.3 5l-6.9 3c-2 1-2 1-4.6 3-3 2.5-5.9 3.1-9.5 4-2 1-2 1-3 3-1.4 2.8-2.9 3-5.8 4a22 22 0 0 0-8.2 4.5c-3.5 2.9-6.6 4-10.8 5.5-2.7 1.3-4.2 2.9-6.2 5l-6.9 3c-2 1-2 1-4.6 3-2.4 2-4.3 2.9-7 4s-4.4 1.9-6.5 4c-2.8 2.8-6 3.6-9.7 5-2.8 1.1-4.2 2.9-6.3 5q-2.9 1.2-5.8 2a36 36 0 0 0-6.8 4 33 33 0 0 1-11.4 5l-.9 2c-1.5 2.9-2.9 3-5.9 4a26 26 0 0 0-9.5 5.8c-5 3.8-12.4 6.8-18.7 7.3-2-.9-2-.9-4-2.2l-2-1.4-2-1.4-2.7-1.5-5-3.5a30 30 0 0 0-7.4-3.5c-3-1-4-1.5-6.4-4a12 12 0 0 0-7-4c-4.4-1.2-6.3-3.2-9.5-6.5l-6.9-3q-3.9-2-7-5l-3.5-1.5a30 30 0 0 1-7-4c-3.3-2.5-6.8-4-10.6-5.5-2.7-1.2-4.7-3.1-7-5l-4.5-2a34 34 0 0 1-9.5-6q-5-2.7-10-5v-2l-2-.5a31 31 0 0 1-14-7.5l-4.5-2c-4.2-1.7-7-4.1-10.5-7l-7-3.1c-2-1-2-1-5-3v-2l-1.7-.4a36 36 0 0 1-12.5-6.2c-2.7-2-5.7-3-8.8-4.3-2-1-2-1-3.5-2.5-1.9-2-3.8-2.5-6.3-3.4-4.6-1.6-7.5-4-11.2-7.1l-7.6-3.9a56 56 0 0 1-8.4-5.1l-2.6-1c-2.4-1-2.4-1-4.6-2.9a29 29 0 0 0-10.5-4.6c-3.3-2.1-4.3-4.9-5.3-8.5q-.5-5.6-.4-11.1V304.8c0-8.7 0-8.7 3.4-12.9a53 53 0 0 1 15-9l3-2.3c3.4-3 6.7-4.2 11-5.7q1.5-.3 3-1l1-1.8c1.4-2.9 2.8-3.2 5.8-4.2a32 32 0 0 0 10.2-6q2.3-.8 4.5-2c2.7-1 4.6-2 7-4 2.4-1.8 4.3-2.7 7-4 2.8-1 4.3-1.7 6.4-4 3-2.7 6.1-3.6 9.8-5 2.3-1 2.3-1 4.3-3 2.8-2.7 6-3.6 9.6-5 3-1.2 5-2.8 7.4-5q5.2-3 11-5v-2l2-.6c8-3 8-3 11.1-5.9 3.5-3 6.5-4 11-5.5 1-1 1-1 1-4v-8.7l-.2-7.3c-.4-26-.4-26 5-34 2-3.7 3-7.7 4-11.8 1.2-3.3 2.8-5.3 5.1-8.2l2-4c1.7-3.7 4-6 7-9l1.4-2.4c1.7-2.7 3.6-4.3 6.1-6.2 1.5-1.2 1.5-1.2 3.7-3.6Q344 102.9 355 97l1.8-1.5c2.7-1.8 5-2.2 8.1-3 3.7-.7 6-1.3 9-3.5 8-5.2 19-4.2 28.2-4.2m-98 136.1v2l-2.8.8a34 34 0 0 0-9.3 5.3v2l-2.7.3c-3.6.8-5.7 2-8.8 4q-4.3 3.2-9.4 5.3c-3 1.3-3 1.3-5.4 3.3-3.2 2.4-6.5 4-10.2 5.8q-4.5 2.4-8.6 5.2-4.4 2.7-8.9 5l-2.5 1.7-6.5 3.3a30 30 0 0 0-6.5 4.2c-3.3 2.5-6.6 3.5-10.5 4.8v2q-4 2.2-8.2 3.9a71 71 0 0 0-11.6 6.8q-4.1 2.6-8.5 4.5c-1.7.8-1.7.8-3.7 2.4-2.6 2-5.3 3-8.2 4.3-2.6 1.8-2.9 3.1-3.8 6.1q-.4 5.3-.3 10.6v98.4q-.2 1.1-.2 2.3v128.2q-.3 5.1 0 10.1l-.2 3c.1 4.6.1 6.8 3 10.5a121 121 0 0 0 8.7 6l2.4 1.5c2.6 1.5 2.6 1.5 6 2.9 3.3 1.5 5.8 3.1 8.7 5.4q3.9 2.4 8.1 4.4 3.1 1.5 5.8 3.8l3.7 1.9q5.4 2.7 10.4 6l5 2.6q4.5 2.4 9 5.4l5.1 2.6c2.8 1.5 2.8 1.5 5.1 3.4q4 3 8.7 5.1 5.6 2.9 11 6l3 1.5c3 1.5 3 1.5 5.2 3.4 3.3 2.5 6.7 4.1 10.4 5.9q3.4 1.9 6.4 4.2l5 2.5a55 55 0 0 1 9 5.5q2.3 1.3 4.7 2.4 5.9 2.9 11.5 6.5l5.1 2.8c2.7 1.3 2.7 1.3 4.1 2.8 1.8 1.8 3.3 2.4 5.6 3.4a114 114 0 0 1 19.5 11.1 85 85 0 0 0 12.1 6.9c7.6 3.6 15 8.3 22 12.8 3.4 1.8 5.5 1.8 9.4 1.3 4-1.5 7.2-3.4 10.5-6 2.8-2.2 5.3-3 8.6-4.2 2.7-1.1 4.6-3 7-4.8q4.2-2.2 9-4v-2l2-.7c5-2.1 10-4.4 14.3-7.7A46 46 0 0 1 463 662q3.9-2 7.1-5l7-3 2.3-1.9c3.2-2.5 6.5-4 10.1-5.9q4.7-2.3 8.7-5c6-3.9 12.4-7 18.7-10.5q4.7-2.6 9.2-5.7l4-2q5-2.5 9.7-5.5 8.5-5.5 17.5-10c2.8-1.5 4.8-3.2 7.2-5.4q2.4-1.7 5.4-2.6c4.1-1.4 7.4-3.5 11-6 2.6-1.9 5.4-3.1 8.3-4.5 2-1 2-1 5.1-3.1 2.8-2 2.8-2 5.4-3 2.4-1 2.4-1 4.1-2.7 3.5-3.4 7.8-4.6 12.3-6.2v-2l1.6-.7c7.7-4 7.7-4 9.5-7.3 1.3-4.4 1.1-8.6 1.1-13.1V315.6c0-13.2 0-13.2-4.3-17.9l-8.8-4.6q-4.2-2.3-8.2-4.9l-9-5.2-2.6-1.6c-2.4-1.4-2.4-1.4-5.3-2.7a56 56 0 0 1-6.6-4.1 28 28 0 0 0-7.3-4.2c-3.2-1.4-3.2-1.4-4.6-2.8-2.2-2.2-4.6-3.2-7.4-4.6q-7.9-3.8-15.5-8.3-6.6-4-13.5-7.8-5.7-3.3-11.2-7-1.5-.5-2.9-1.3a60 60 0 0 1-7-4 95 95 0 0 0-8.2-4.7 25 25 0 0 1-7-4.7c-2.9-2.2-2.9-2.2-5.6-2.3-6 2.8-9.2 11-12.4 16.7a62 62 0 0 1-8.8 12c-1 1.3-1 1.3-1 3.3q-1 .6-1.9.8-3.5 2-6.5 5A104 104 0 0 1 439 277l-3.5 1.8a64 64 0 0 1-13 2.8c-2.5.3-2.5.3-3.5 1.3q-3.6.8-7 1v2l-8.7-.3-2.4-.2q-5.2 0-10.3-1c-2.6-.4-2.6-.4-5.6.6l-1-2c-1.8-.6-1.8-.6-4.2-1.1l-2.6-.6-5.5-1.2a40 40 0 0 1-14-6q-2.5-1.7-5.4-2.7A80 80 0 0 1 327 249l-1.7-2a70 70 0 0 1-8-13.3q-2.3-4.5-5-8.8l-1.7-2.8-1.6-2.2c-3 0-3 0-5 1"/><path fill="#d65b4f" d="M226.3 380h13.1l7 .1 14.6.1 18.7.1 14.4.2h7l9.6.1h2.8c5.2.1 9.6.7 14.5 2.4v2c2.8-.6 3.8-.9 6-3q4.3-1.4 9-1.2h43.5c2.8.2 5 1 7.5 2.2a26 26 0 0 1 3 15 28 28 0 0 1-9.8 3.1l-3 .5-2.2.4c-1 2.8-1.2 4.6-1.2 7.6v40.2c.2 2.2.2 2.2 2.2 5.2 1.8.5 1.8.5 4 .6l2.4.2a282 282 0 0 0 15.7.4h5c2-.2 2-.2 4-2.2q1.2-7.9.7-15.7a10 10 0 0 1 2.2-6.3c3.8-2 7.2-2.3 11.5-2.4h3.3a14 14 0 0 1 8.2 3.4c2.1 3.2 2.3 4.2 2.4 8l.1 3v3l.2 6.1.1 2.7c.2 2.2.2 2.2 1.2 4.2l1.8-1c6.6-3.2 6.6-3.2 10-2.5l2.2.5c2.4-2 2.4-2 5-5l1.5-1.9c3.2-3.9 5.2-7.6 6.8-12.4 1-2.6 3-4.5 4.7-6.7l3.8-7.6q2.3-4.4 5.2-8.4l3-6c1-2 1-2 2.5-4 1.6-2.2 2.4-4.3 3.4-6.9a29 29 0 0 1 7.1-11l1.8-2.8c5.2-3.8 11-2.9 17.2-2.8h4c10.4.2 10.4.2 14 2.5 5.2 5.4 8.5 12.4 12 19l5.6 9.7C567 432.1 567 432.1 567 435h2l1.1 2 3.2 6q1.7 2.8 3 5.8c3.4 6.6 3.4 6.6 7.4 8.3l5.8 1.2c2.5.7 2.5.7 5.1 3.2 1.8 3.2 2.5 5 2.5 8.5v2.1c0 2 0 2-1 4-2.9.8-4.7 1-7.6 1h-2.8l-2.9.1h-9.6l-9.8.1h-9.2A42 42 0 0 1 536 474c-2.5-3.8-2.5-6.7-2-11 1-2.9 1.3-3.7 4-5l4.6-.6 2.5-.3h2c1-3 1-3-.2-5.7-2.3-2.9-3.5-3.4-6.9-4.4-3-.3-3-.3-6.6-.2h-3.8l-3.9.1c-14.6.2-14.6.2-19.4-.5s-6.4.1-10.3 2.6c-1 2.5-1 2.5-1 5 2 3 2 3 5.4 4.4 5 2.1 5 2.1 6.6 5.6q1.7 3.9 1 8c-3.4 3.6-5.6 5.2-10.6 5.6h-8.1l-6-.2h-17.6c-7.3-.2-14-1.6-21-3.3-3.5-.2-4 .8-6.7 3a17 17 0 0 1-10 0q-3.8-.3-7.7-.2H405l-20 .1h-24.7l-4.9.1h-2.2c-15.2 0-15.2 0-21.2-5v-2c-2.8 1.2-3.5 3.2-5 6-1.6 1.4-2.9 1-5 1h-5.7l-3 .1h-32l-18.9.1-14.6.1h-7c-25.5.2-25.5.2-32.8-4.4-2.4-3.8-2.2-6.6-1.5-10.9.5-2 .5-2 2-4.6 3.1-1.9 5.7-2 9.4-2 2.1-.5 2.1-.5 3.7-2 2.1-3.9 1.8-7.7 1.7-12v-26.3A40 40 0 0 0 221 401c-2.5-1.2-2.5-1.2-5.4-1.7-5.4-1-5.4-1-8.3-3.5-1.9-4-1.8-6.4-1.3-10.8 1-2.5 1-2.5 3-4a77 77 0 0 1 17.3-1"/><path fill="#d1d1d1" d="m398 102 .4 2.2A25 25 0 0 0 408 120l4.1 3.6 3.9 3.4 1.8 1.5c4.7 4.1 6.9 4.8 13.2 4.5l6.7-1.6q5.1-.7 10.3-.4c2.7-.4 3.6-.5 5.4-2.6 1.6-1.4 1.6-1.4 4.5-1.5 4.2 1.5 6 4.1 8.1 8.1v2l1.9.6c2.1 1.4 2.1 1.4 2.8 4.2.6 5.6 0 11.2-.5 16.8l-.3 3.4-.2 3.3-.3 2.9c-.4 2.9-1.3 5.2-2.4 7.8.1 3.9.5 5.5 3.2 8.4l2.7 2.2c4 3.3 7.5 6.2 8.5 11.5-.2 15-3.6 28.1-14.4 38.9l-4.1.9-2.5.3-2.5.4-2.6.4-6.3 1-.3 3.8-.4 4.9-.1 2.5c-.4 4.2-.8 6.3-3.5 9.7q-3.6 2.9-7.8 4.9l-2.6 1.2c-4.8 2.1-9.2 2.3-14.5 2.6q-5.5.3-10.9 1.3c-3.9.1-3.9.1-6.7-2.1L400 266l-2.2-1.9c-2.3-2.7-2.5-4.7-2.8-8.1l2.4-1.5c2.9-2.8 3.3-4.5 3.6-8.4q0-4.6-1-9.1c2.9-2.4 4.8-3.4 8.6-3.8 6-1.1 13-3.8 17.4-8.2l4.6-.1 2.5.1h1.9l-.2-2.8c-.1-4.5 1.6-8.1 3.2-12.2a58 58 0 0 0 2.5-12.4c.5-2.6.5-2.6 1.6-4.5 1.4-3.4.8-5.6-.1-9.1a51 51 0 0 0-5.6-5.8L431 173v-2h-2a50 50 0 0 1-9-12c-8.7.5-16.5 1.8-24.4 5.6-5.1 2-10.2 2.1-15.6 2.4l-.8 3.6-2.7 12-1 4.9-.5 2.4-.5 2.2c-.8 3.1-2.2 4.8-4.5 6.9l-7 3-2.3 2.7c-3.5 3-5.7 3-10.2 2.7-4.7-.8-8-2.4-10.9-6.3l-2.4-4.1c-1.2-2-1.2-2-4-4.7-2.2-2.3-2.2-2.3-2.8-4.9.6-2.4.6-2.4 3-3.8 2.6-1.6 2.6-1.6 3.4-4.4l.4-6.7c.9-4 2.4-5 5.4-7.6 3.6-4.8 3.4-12.1 3.4-17.9l-3.9.9-2.2.5c-1.9.6-1.9.6-3.9 2.6q-1.1 4.8-2 9.7c-1 3.3-1 3.3-3 5.8-2.5 3.1-2.8 5.4-3.2 9.3l-.5 3.5-.3 2.7c-3.1 1-4 .9-7 0-.2-4.3.1-8.1 1-12.3.8-3.8 1-7.1.8-10.9-.1-4.6 1.2-7.1 3.8-10.8q2.1-3.1 3.6-6.4c1.8-3.6 1.8-3.6 3.8-4.6 6-.7 11.1.4 16.8 2.3 2.2.7 2.2.7 5.2.7.1-7.4.1-7.4-.5-10.4q-1.3-5.8-.5-11.6c1.9-2.6 1.9-2.6 5-5l1.8-1.7a41 41 0 0 1 20-8.3l3-.7c5-1 9.2-1.7 14.2-.3"/><path fill="#080e0b" d="M402.1 84.8h3c9.8 0 18.2.9 26.6 6 2.6 1.4 5.1 2 8 2.8 5 1.2 7.5 3 11.3 6.4l3.5 2a83 83 0 0 1 30.5 32v2q.9.2 2 .7c3 2 3.1 4 4 7.7 1.6 6.2 1.6 6.2 4 8.8 5.3 7.4 4.4 18.3 4.7 26.9l.1 3.8q.4 14.2-.8 28 .9.7 1.8 1l2.4 1.4 2.4 1.3 4.5 3c2 1.5 2 1.5 5.4 2.8 3.5 1.5 3.5 1.5 5.3 3.5 2.5 2.4 4.6 3.2 8 4.2 2.8.8 2.8.8 5.2 1.8l1 3c2 1 2 1 5 2a54 54 0 0 1 14 8q3 1.8 6.1 3c2 1.2 2 1.2 4.4 3.2a18 18 0 0 0 6.4 3.3c3.1 1 4.4 1.8 7 4.2a18 18 0 0 0 7.6 4c4.4 1.1 6.3 3.1 9.5 6.3q3.3 1.8 6.8 3.2c2.2.8 2.2.8 4.8 3a12 12 0 0 0 6 2.8c3.4 1 3.4 1 5.7 3.5 2.7 2.7 4 3.2 7.4 4.4a31 31 0 0 1 14.3 11.1c2.4 5.6 2.3 10.9 2.2 16.8l.1 3.2v100.3l.1 37.8v38.9l.1 21.8v41.2a30 30 0 0 1-6.7 20.5c-3.2 1.9-6.4 3.1-9.8 4.6-2 1-2 1-4 3-2.8 2.8-5.9 3.5-9.6 5-2.3 1-3.7 2-5.5 3.6a13 13 0 0 1-7.2 3.5l-3.7.9-1 3c-1.8 1-1.8 1-4 1.9a23 23 0 0 0-8.5 5.1c-3.3 3-6.3 4-10.5 5.3-2 .7-2 .7-4.5 3.2-3 3-6 4-10.2 5.5-2.9 1.3-4.9 3-7.3 5l-6.9 3c-2 1-2 1-4.6 3-3 2.5-5.9 3.1-9.5 4-2 1-2 1-3 3-1.4 2.8-2.9 3-5.8 4a22 22 0 0 0-8.2 4.5c-3.5 2.9-6.6 4-10.8 5.5-2.7 1.3-4.2 2.9-6.2 5l-6.9 3c-2 1-2 1-4.6 3-2.4 2-4.3 2.9-7 4s-4.4 1.9-6.5 4c-2.8 2.8-6 3.6-9.7 5-2.8 1.1-4.2 2.9-6.3 5q-2.9 1.2-5.8 2a36 36 0 0 0-6.8 4 33 33 0 0 1-11.4 5l-.9 2c-1.5 2.9-2.9 3-5.9 4a26 26 0 0 0-9.5 5.8c-5 3.8-12.4 6.8-18.7 7.3-2-.9-2-.9-4-2.2l-2-1.4-2-1.4-2.7-1.5-5-3.5a30 30 0 0 0-7.4-3.5c-3-1-4-1.5-6.4-4a12 12 0 0 0-7-4c-4.4-1.2-6.3-3.2-9.5-6.5l-6.9-3q-3.9-2-7-5l-3.5-1.5a30 30 0 0 1-7-4c-3.3-2.5-6.8-4-10.6-5.5-2.7-1.2-4.7-3.1-7-5l-4.5-2a34 34 0 0 1-9.5-6q-5-2.7-10-5v-2l-2-.5a31 31 0 0 1-14-7.5l-4.5-2c-4.2-1.7-7-4.1-10.5-7l-7-3.1c-2-1-2-1-5-3v-2l-1.7-.4a36 36 0 0 1-12.5-6.2c-2.7-2-5.7-3-8.8-4.3-2-1-2-1-3.5-2.5-1.9-2-3.8-2.5-6.3-3.4-4.6-1.6-7.5-4-11.2-7.1l-7.6-3.9a56 56 0 0 1-8.4-5.1l-2.6-1c-2.4-1-2.4-1-4.6-2.9a29 29 0 0 0-10.5-4.6c-3.3-2.1-4.3-4.9-5.3-8.5q-.5-5.6-.4-11.1V304.8c0-8.7 0-8.7 3.4-12.9a53 53 0 0 1 15-9l3-2.3c3.4-3 6.7-4.2 11-5.7q1.5-.3 3-1l1-1.8c1.4-2.9 2.8-3.2 5.8-4.2a32 32 0 0 0 10.2-6q2.3-.8 4.5-2c2.7-1 4.6-2 7-4 2.4-1.8 4.3-2.7 7-4 2.8-1 4.3-1.7 6.4-4 3-2.7 6.1-3.6 9.8-5 2.3-1 2.3-1 4.3-3 2.8-2.7 6-3.6 9.6-5 3-1.2 5-2.8 7.4-5q5.2-3 11-5v-2l2-.6c8-3 8-3 11.1-5.9 3.5-3 6.5-4 11-5.5 1-1 1-1 1-4v-8.7l-.2-7.3c-.4-26-.4-26 5-34 2-3.7 3-7.7 4-11.8 1.2-3.3 2.8-5.3 5.1-8.2l2-4c1.7-3.7 4-6 7-9l1.4-2.4c1.7-2.7 3.6-4.3 6.1-6.2 1.5-1.2 1.5-1.2 3.7-3.6Q344 102.9 355 97l1.8-1.5c2.7-1.8 5-2.2 8.1-3 3.7-.7 6-1.3 9-3.5 8-5.2 19-4.2 28.2-4.2m-24 9.7-5.6 1.3a37 37 0 0 0-15.5 6.8 32 32 0 0 1-6 3.3c-11.6 5.5-19.6 15.8-27 26l-2.3 3.3c-1.7 2.8-1.7 2.8-2.2 5.5-.7 3-2.2 4.2-4.5 6.3a23 23 0 0 0-3 9.3q-.6 4.5-2 8.6a72 72 0 0 0-1.5 37.7q.6 3.7.5 7.3h-2l-2 2.8a21 21 0 0 1-9 6.4c-2 .8-2 .8-5 2.8q-4.4 2.9-9 5c-2 1-2 1-5 3q-4.4 2.9-9 5l-5 3q-4.4 2.9-9.2 5c-1.8 1-1.8 1-3.3 2.7a15 15 0 0 1-5.6 3.3c-5.3 2.2-10 5-14.9 8l-2.6 1.7-5.3 3.3a47 47 0 0 1-10 5q-1.5 1.2-3 2v2l-1.8.6a45 45 0 0 0-14 7 51 51 0 0 1-6.6 3.6 27 27 0 0 0-6.2 3.8 24 24 0 0 1-6.9 4c-5 2-10 5.2-12.6 10l-.2 4.5V493l-.2 22.1V557c0 5.8.6 9.9 3.4 14.9 3 2 3 2 6.2 3.6l3.5 1.9 3.3 1.5 4 2.4c3 1.6 3 1.6 6.3 2.6l2.7 1 1 3q3.2 1.9 6.7 3.5 7 3 13.3 7.5l3.6 2c3.4 2 3.4 2 5.3 3.5 2 1.5 3.6 2 6 2.9 4.1 1.5 6.7 3.8 10.1 6.6l6.6 3a111 111 0 0 1 17 10q5.8 4 12.2 7 3.7 1.7 7.2 4l2.7 1.4q4 2 7.6 4.5 5.4 3.7 11.1 6.6l9.4 5.4 1.8 1 11.4 6.6q6.3 3.8 12.8 7.1 5.3 2.8 10.1 6.1c2.4 1.8 4.1 2.8 6.8 4 3.3 1.3 3.3 1.3 4.7 2.8 2 1.9 3.8 2.8 6.3 3.9q6 3 11.5 6.6c1.8 1 1.8 1 4.5 2 2.3 1 2.3 1 4.6 2.9 4.2 3.3 7.8 6 13.4 6.1 6-.9 9.7-2.5 14.2-6.5 3.1-2.2 6.4-3.7 10-5.4 2.1-1 2.1-1 3.6-2.6 1.8-1.9 3.5-2.5 6-3.5 8.3-3.5 8.3-3.5 9.5-6l7.7-3 2.3-1 1-3 6-2q6-3.1 11.7-6.6c2.3-1.4 2.3-1.4 5.2-2.7q3.4-2 6.5-4.2c3.4-2.5 6.7-4 10.6-5.5l3-2v-2l1.6-.5a45 45 0 0 0 14.2-7c2.7-1.9 5.4-3.1 8.3-4.5 2-1 2-1 5-3q3.2-2.2 7-4a31 31 0 0 0 6.4-4c2.5-2 2.5-2 5.8-3.5a28 28 0 0 0 7-3.9q5.5-3.8 11.5-6.5c2.2-1 2.2-1 4.2-3.1l4-1.7q6.3-2.8 11.8-6.8a63 63 0 0 1 8.5-4.6l3.7-2.4c2-1.5 3.7-2.4 6-3.5a28 28 0 0 0 6.5-4c2.4-2 4.7-3 7.6-4.1q4.1-2.1 8-4.7c2-1.2 2-1.2 5.2-2.7 3.3-1.9 4.2-3 5.7-6.5 1.7-6.5 2.3-10.6 0-17l2-7c-.3-3.5-.6-4.5-3-7l2-1-.5-1.7q-.1-1-.5-2.3c0-.4 0-.4-.7-2.1l-.3-2 2-2c1.3-4.6.7-7.4-1-12q.1-4.9 1-10l-1 2h-2l1.4-1.5c2.4-3.6 2.7-6.8 2.3-11.1-.7-2.4-.7-2.4-2.7-4.4q1-.3 2-1l-.5-1.6q-.1-1.1-.5-2.4l-.7-2-.3-2 2-2c1.2-4.5.8-7.4-1-12q-.6-.3-1-1 1-.3 2-1l-.5-1.6q-.1-1.1-.5-2.4l-.7-2-.3-2 2-2c1-3.8 1.2-7 0-11q-1-.8-2-2 1-.3 2-1l-.5-1.6q-.1-1.1-.5-2.4l-.7-2-.3-2 2-2c1.2-4.5.8-7.4-1-12q-.6-.3-1-1 1-.3 2-1l-.5-1.6q-.1-1.1-.5-2.4l-.7-2-.3-2 2-2c1-3.8 1.2-7 0-11q-1-.8-2-2 1-.3 2-1l-.5-1.7c-.5-2.2-.5-2.2-.5-4.2h2v-2h-2l.5-1.7c.5-2.6.2-4-.5-6.4v2h-2l1.4-1.5c2.4-3.6 2.7-6.8 2.3-11.1-.7-2.4-.7-2.4-2.7-4.4l2-2 1-7h-3v-2h2q1.3-8.9 1.1-18v-3.1q0-9.9-1-19.4c0-2.4 0-2.4 1-5.4a25 25 0 0 0-13-15.1l-4-2q-4.2-2-8.2-4.6c-8.2-5.4-8.2-5.4-10.9-5.4v-2l-2.3-.8a58 58 0 0 1-13.7-8.2q-5.9-2.7-12-5v-2l-1.7-.5a75 75 0 0 1-14-8q-4.2-2.4-8.5-4.5-4-2.1-7.8-5l-3.9-1.8a139 139 0 0 1-9.9-5.7q-9-5.9-18.8-10.7c-3-1.4-4.2-2.4-6.4-4.7-4.6-3-4.6-3-7-3v-6.8c0-2.1 0-2.1 1-4.2a92 92 0 0 0-1-38h-2l-.3-2.7a65 65 0 0 0-6.7-21.4h-2l-.7-2.3c-3-8-8.2-14.7-14.3-20.6h-2l-.8-1.8a14 14 0 0 0-5.2-5.2c-3.8-2.7-3.8-2.7-5.5-4.5-1.9-1.8-4-2.8-6.5-4a37 37 0 0 1-6.9-4 17 17 0 0 0-7-2.8l-3-.7-3-.5-5.9-1.3-2.8-.7c-2.4-.5-2.4-.5-5.7-1.7-11-3.5-23.7-.1-34.7 2.7M632 408q.3 1 1 2h2v-2zm0 24q.3 1 1 2h2v-2zm0 24q.3 1 1 2h2v-2zm0 24q.3 1 1 2h2v-2zm0 48q.3 1 1 2h2v-2zm-1-176q.8 1 2 2h-2z"/><path fill="#d0d0d0" d="M404 98v14h2v2h2l4 5 5 4 2.1 2.2c2.3 2.2 4 2.8 7.2 2.9l8.6-.2 3-.1c8.2-.2 8.2-.2 11.2-3.3l1.9-2.5 1-1c7 .2 7 .2 10.5 2.9l2.5 3.1 2 2.5c9.3 12.3 9.3 12.3 8.8 18.9l-.8 2.6a77 77 0 0 0-2.6 19.6l-.1 2.8c-.1 3.8-.1 6.5 2.2 9.7a29 29 0 0 0 3.8 3.4c2.2 1.9 3 3.8 3.7 6.5h2c2.3 4.1 3.4 6.6 2.2 11.2l-.5 2.4-.7 2.4-.6 2.2A61 61 0 0 1 469 240l-6.4 1.1c-7.2.9-7.2.9-10.6 1.9l-.8 7.1-.2 2c-.6 4.5-1.6 8.1-4 11.9-1.8 1.3-1.8 1.3-3.8 2.1a35 35 0 0 0-7 3.9 32 32 0 0 1-11 4.1l-4.2.9-2.1.5-7.6 2.4c-2.9.9-4.1 1.1-7.2.6-2.6-1.8-4.2-4-6.1-6.5-3.4-2.3-5.9-2.5-10-3l.6-3.4c.4-3.6.4-3.6-.6-5.6-4.7 1.7-4.7 1.7-6.2 3.5-4.6 3.9-14 2.5-19.8 2.5-9.8-.9-17.1-8.5-23.3-15.7a11 11 0 0 1-2.7-8.3c1.3-1.5 1.3-1.5 2.9-3 4.1-4.6 4.2-9 4.4-14.9l.3-2.9c.2-5.3-.2-8.4-3.8-12.5L336 205l-2.7-3.4-2.4-3-2.4-3.2c-2.9-2.8-4.5-3.2-8.5-3.4l-3.2.1c-2.8-.1-2.8-.1-4.8-2.1-1-9.9 1.9-20.7 5.3-29.9q1.1-3.4 1.6-6.8c.9-4.6 2.9-6.8 6.1-10.3l1.6-3.2c1.5-3.1 2.4-4.2 5.4-5.8 5.3-1.1 9.8-1 15.1-.3 1.9.3 1.9.3 3.9.3l-.5-2.1c-1.3-5.6-2.2-10.3.1-15.7 7.9-12.5 23.2-15.5 36.6-18.7a26 26 0 0 1 16.8.5m-45.1 14.5a16 16 0 0 0-4.9 5.5q-.5 7 1 14v8l-4.2-.9-2.4-.6-4.4-1c-4.5-1.1-9.3-1.6-13.2.9q-3.2 5-5.7 10.3C324 151 324 151 322 154v4.5q0 7-1.6 13.9-.6 4.8-.4 9.6c4.8 1.1 4.8 1.1 7 0q.8-4.8 1.2-9.7c.9-3.8 2.4-5.3 4.8-8.3q1.3-5 2.1-10c1-3.4 1.8-4.3 4.9-6 3.2-.7 3.2-.7 6-1 0 13.6 0 13.6-3.4 17.7l-3.3 2.7c-2.4 2.9-2 6.5-2.1 10.1-.2 2.5-.2 2.5-2.2 5.5-2.1 1.2-2.1 1.2-4 2 .3 5.9 1.7 8.1 6 12l1.9 3.1c3.1 4.3 6.4 6.4 11.6 7.3 4.4.3 6.7.3 10.1-2.6l2.4-2.8 6-2.7c4.2-2.7 5.8-6.4 7-11.1l.6-4 1.1-6.3q1-5.5 2.3-10.9h2.2c7.1-.4 12.4-1.9 18.8-4.8q6.9-2.6 14-3.2l2.6-.3c2.4.3 2.4.3 4.1 2.2l1.4 2.4c3.3 5.5 3.3 5.5 5.9 7.7h2l.7 1.7c1.6 2.8 3.5 4.5 5.9 6.6 3 3 4.3 4.4 5.6 8.5-.2 3.2-.2 3.2-1.1 4.9-1.5 3.1-1.9 6.2-2.5 9.5-.8 4.3-1.6 8.3-3.3 12.3A21 21 0 0 0 435 225l-1.7-.2c-5.7-.3-8.8.7-13.4 3.9a40 40 0 0 1-16 5.8c-1.9.5-1.9.5-3.9 2.5q.2 4.1.9 8.2c.1 3.2-.5 5-1.9 7.8-2.1 1.8-2.1 1.8-4 3 .1 5.5 2.5 8.3 5.9 12.4 3.8 2.9 7.3 2.7 12 2.3l4.1-.6q5.6-1 11.2-1c3.1-.1 4.3-.7 6.8-2.4s4.7-3 7.4-4.3c2.6-1.4 2.6-1.4 4.6-4.4.4-2 .4-2 .6-4.2l.3-2.5.2-2.5.3-2.5.6-6.3 3.8-.5 5-.7 2.4-.3c6.2-.9 6.2-.9 9.2-3.8l1.6-2.7 1.8-2.4A49 49 0 0 0 481 206l.4-2.9c.4-5.7-.9-8.9-4.6-13.3a52 52 0 0 0-5.6-4.9 11 11 0 0 1-4.3-6c.1-2.9.1-2.9 1.1-5.2 2-5.3 1.9-11.1 2.2-16.7l.4-3.9.2-3.7.3-3.3a15 15 0 0 0-2.1-8.1l-3-1-.9-2.2a17 17 0 0 0-6.1-7.8c-2.7-.5-2.7-.5-5 0l-2 3c-2.9.9-5.2 1-8.2.9-3.1.1-5.4.4-8.3 1.1-5.2 1.2-9.5 2-14.4-.5a90 90 0 0 1-9-8.4q-4-4-8.4-7.6c-3-2.7-4-5.3-4.8-9.2l-.5-2.4-.4-1.9c-12.8-3.4-29 2.7-39.1 10.5"/><path fill="#49232d" d="M408 97q-.7 4.2-2.2 7.9c-.8 3.1-.8 3.1.6 6.5l1.6 2.6h-2v-2h-2c-1.4-2.8-1.1-5-1.1-8.1l.1-3.3V98c-11.8-3.3-29.2 3.1-40 8-5.4 3.1-9.8 6.4-12.2 12.3-1.3 5.3-.6 10.4.2 15.7-6.7 1.3-12.4.7-19-1l6-2.5 2-.5 3 2h5v-4c-3.8-1.3-5.4-.4-9 1-2.8-3.1-3.2-4.9-3-9l2.2.3c3.1.3 5.7.3 8.8-.3 2-2 3.1-4 4.5-6.5a26 26 0 0 1 16.2-12.3l5.8-1.3c3.4-.9 5.6-2.1 8.5-3.9 7.8-2.7 18.9-3.7 26 1m0 17 3.8 2.8 2.2 1.6a31 31 0 0 1 5 4.6v2c6.2 1.8 9.7 1.9 16 0l4.7.6c4 .6 4 .6 6.7-1.4l3.6-5.2c4-.4 6.8-.4 10.6.9 5.5 4.7 9.6 11 13.4 17.1l1.4 2.2c3.7 6 3.7 6 3 10.2-1.4 2.6-1.4 2.6-3.4 5.6l-1 5h-1l.4-4.2.3-2.3c.3-2.5.3-2.5.9-5 .9-5.6-2.4-10.8-5.5-15.3L463 126l-1.5-1.7c-2.4-2-4.6-2.2-7.6-2.5-1.9.2-1.9.2-4.3 2.6L448 127c-3.8 1.9-8.5 1.6-12.7 1.8l-3 .2c-6.4.4-10-.1-15.3-4-2.7-2.5-2.7-2.5-5-5l-2.3-2.2C408 116 408 116 408 114m-79 20 3 1-2.2 2.1c-3.1 3-4.8 6.2-6.8 9.9l-1.5 2.3a33 33 0 0 0-3.1 8.6q-1 4.6-2.5 9.1a66 66 0 0 0-2.9 23l1 1 4.8-.2c3.4 0 4.9 0 8 1.8q4.3 4.5 8.2 9.4l-1 2-1.6-2.2c-6-7.5-6-7.5-10.3-8.4l-5.6.5c-2.5.1-2.5.1-4.8-1-2.9-3.2-2-6.6-1.9-10.8l.2-3.1v-2.3c.3-6.2 2.9-11 5.6-16.5 1.3-3 2-5.4 2.5-8.6.7-4.9 2.5-7 5.9-10.6l3-6zm143 26c2.6 2.6 3.6 5.6 5 9l1.4-1.3 1.8-1.8 1.9-1.7c1.9-1.2 1.9-1.2 4.1-1.1l1.8.9c1.2 3.6 1.3 6.2 1 10-1.5 2.9-1.5 2.9-3 5-2.4-.2-2.4-.2-5-1-1.3-2.6-1.3-2.6-2-5-1.9.8-1.9.8-4 2-.8 1.8-.8 1.8-1 4 1.2 1.8 1.2 1.8 3 3.7l1.9 2.1 2.1 2.2c8.2 9.4 8.2 9.4 8 16q-1.6 6.4-4.5 12.4-1.7 4.2-2.8 8.6c-1.5 5.1-4 8.3-7.7 12l-1-2 1.1-1.4c5.4-7.3 7.6-15 9.9-23.6l.8-2.8c1.4-5.2 1.1-8.3-.8-13.2h-2c-1.4-1.6-1.4-1.6-2.9-3.8a21 21 0 0 0-5.3-5.8c-3-4-2.2-8.3-2-13.2v-2.9zm-137 44 3.4 2.8 1.9 1.6c2.3 2.1 3.6 3.7 3.9 6.9l-.4 8.7-.1 3.1-.1 2.9-.1 2.7c-.6 2.7-1.4 3.6-3.5 5.3l.2-2.3.7-10.3.3-3.6c.5-8.8.5-8.8-1.5-11.9-1.7-1.6-1.7-1.6-4.7-3.9zm-2 10c2.1 1.7 2.1 1.7 3 4-.1 3.1-.8 4.6-2.5 7.2A22 22 0 0 1 322 229l-2-1c-.5-4.8-.7-8 2-12.1 4.1-2.6 6.1-2.6 11-1.9m-25 3c3.4 1.7 4.6 4.8 6.4 8 1.6 2 1.6 2 3.8 2.8l1.8.2.1 2a35 35 0 0 0 15.9 25l2.3 2.9c2.6 3.3 5.6 5 9.1 7l1.6 1.1v2h2v2l2 .6 2.8.8 2.6.7q3.4 1.1 6.6 2.9v2l3.5.2 4.7.2 2.3.2c10.3.5 10.3.5 13.8 3 3.9 2 6.4 1.2 10.7.4-.6-3.4-1.7-5.5-4-8-3-1.2-5-1-8 0v2h-4l-1.2-2.9c-1.8-3.1-1.8-3.1-4-4.5-4.5-1-8.5-.9-13 .1q-8.2.5-15.8-2.7c-2.8-2.8-2.8-2.8-5-6l-4.1-3.6c-4.1-3.5-6.6-6.1-7.3-11.5.4-2.9.4-2.9 2.4-4.8l2-1.1 2 1-1.6 1.1c-1.4 1.9-1.4 1.9-1.5 4.6A38 38 0 0 0 354 263a52 52 0 0 0 26 1c2.5-1.4 4-2.9 6-5l3 1c.8 3.3 1.1 4.7 0 8l3.2.7c4 1.1 6 3.2 8.8 6.3 1.8 1.9 1.8 1.9 4 3 3.2-.5 5.9-1.1 9-2l3.4-.9L428 272l2.7-.8A28 28 0 0 0 442 265l2.7-.9c2.3-1.1 2.3-1.1 3.4-3.3 1.3-4.2 1.7-8.4 2.2-12.8.7-3.2 1.1-4.2 3.7-6 2.3-.7 2.3-.7 4.8-1.1A34 34 0 0 0 473 236c-.8 2.4-.8 2.4-2 5-3.8 1.3-7.4 1.4-11.4 1.6-2.6.4-2.6.4-5.6 2.4-.6 2.6-.6 2.6-1 5.7-1.4 9.2-1.4 9.2-4 13.3a67 67 0 0 1-7 3.7c-2 1.3-2 1.3-2.8 3.9l-.2 2.4c8.7-2.9 18.6-7.8 23.2-16.2l.8-1.8-5-1-1-3c1.8-.6 1.8-.6 4-1l3 2c2.4.4 2.4.4 5 0 6.1-5.3 9.7-12.9 13.3-19.9 5.5-10.2 5.5-10.2 10.6-12.3 4.3.3 6.6 1.9 10.1 4.2v2c4.6 1.9 4.6 1.9 6.9 2.6 3.6 1.2 5.8 2.1 8.5 4.8 3.6 3.6 7.8 4.9 12.6 6.6v2l2 .8q9 3.8 17.1 9c1.9 1.2 1.9 1.2 5.1 2.8a18 18 0 0 1 5.1 3.3c3.1 2.4 6.1 3.6 9.6 5.1 2.7 1.3 4.8 3.1 7.1 5l4.5 2c3.7 1.6 6.3 3.5 9.5 6l4.6 2a16 16 0 0 1 6.4 4.1c2.7 2.6 5.4 3.1 9 4 2.6 1.2 2.9 2.4 4 4.9 2.8 1.1 2.8 1.1 6 2 3.9 1.5 5.6 2.4 7.9 5.9 1.1 3.1 1.1 3.1 1.1 7.1h2l.1 8.4v2.4c0 6 0 6-1.1 8.2h2v2h-2l.5 3.6q.6 4 .4 8.2c.1 3.2.1 3.2 2.1 6.2v4h-2v2h3c-.6 6.2-.6 6.2-1 8l-2 1 2 2c1.1 4.7 1.3 7.7-1 12l-2 3h2l1-2c.1 5.8.1 5.8-1 8h2v2h-3l2 3v3l-2 1 2 2c1.1 4.7 1.2 7.6-1 12l-1 3 2 3v3l-2 2 2 1c1.1 4.7 1.2 7.7-1 12l-1 3 2 3v3l-2 1 2 2c1.1 4.7 1.2 7.6-1 12l-1 3 2 3v3l-2 2 2 1c1.1 4.7 1.2 7.7-1 12l-1 3 2 3v3l-2 1 2 2c1.1 4.7 1.3 7.7-1 12l-2 3h2l1-2-.5 3.3c-.8 6-.8 6 .6 9.5 1.1 4 .3 6.3-1.1 10.2l-1 3 2 3v3l-2 1 2 2c1.1 4.9.9 7.5-1 12 .4 2.8.4 2.8 1 5l-2 1-.4 2.2c-.9 4.4-2 7.6-5.7 10.4l-4.6 3c-2.3 1.4-2.3 1.4-4.3 3-2.8 2-5.8 3.1-9 4.3-2 1.1-2 1.1-4 4.1-2 .9-2 .9-4.4 1.6-3 .9-5.9 1.7-8.6 3.4l-1 3c-2.1 1-2.1 1-4.7 1.9a23 23 0 0 0-8.4 4.7c-3 2.5-5.3 3.4-9 4.6-1.9.8-1.9.8-5 3.4-2.9 2.4-2.9 2.4-6.5 3.4-3.4 1-3.4 1-5.7 3.4-3.2 3.1-6.1 4.1-10.3 5.6-2.3.9-3.7 1.9-5.5 3.6a18 18 0 0 1-6.9 3.9c-4.1 1.4-6.7 3.7-10 6.5l-7 3-3.5 2.5a29 29 0 0 1-7.1 4c-3.2 1.4-5.1 3-7.7 5.3-2.6 1.9-5.5 2.5-8.5 3.4-2.2.8-2.2.8-5.3 3.4a13 13 0 0 1-7.1 3.5l-3.8.9-1 1.9c-1.3 2.7-2.5 3-5.2 4a23 23 0 0 0-7.7 4.6 34 34 0 0 1-10.9 5.5c-2.7 1.2-4.1 2.9-6.2 5q-3.3 1.6-6.7 2.9a44 44 0 0 0-7.7 5 15 15 0 0 1-9.6 3.1l-.7 1.9c-2.2 3.5-5.5 4.1-9.3 5.4-5.8 1.4-10.1.8-15.2-2.1L385 694c-3-2.1-5.5-3.8-9-4.9a20 20 0 0 1-7.3-4.8c-2.6-2-5.5-3-8.5-4.3q-4-2-7.5-4.8-2.6-1.7-5.4-2.8c-3.3-1.4-3.3-1.4-5.2-3.4a12 12 0 0 0-6.5-3.4c-4.4-1.4-7-3.6-10.6-6.6l-6.9-3a18 18 0 0 1-5.1-4l-4.7-2.4q-6-2.9-11.6-6.6c-1.7-1-1.7-1-4.2-1.9a25 25 0 0 1-6.4-4.1c-2.6-2-4.2-3-7.3-4.1-2.8-.9-2.8-.9-5.1-3.3-3.1-3-5.5-3.6-9.5-4.8-3.3-1.2-5.5-3.5-8.2-5.8l-6.9-3q-3.8-2-7.1-5l-4.5-2a41 41 0 0 1-9.5-6l-7.6-3.8q-4.3-2.4-8.4-5.2l-7-3v-2l-2.1-.8-2.9-1.2-3.5-1.4a30 30 0 0 1-8.5-5.6v-2l-3-.1c-4.3-.6-6.8-2.7-10.1-5.4-1.9-1.5-1.9-1.5-5.3-3.5-2.6-2-2.6-2-3.3-4.5q-.5-6.8-.4-13.8v-13.4l-.1-7.5V335.9l-.1-7.2.1-9.9-.1-2.9c.1-6 .1-12.3 2.3-17.9 2.7-2.4 4.7-3.4 8.2-4l3.8-1 1-3 5.1-2.9q5-2.4 9.5-5.8c3.4-2.6 7.1-3.5 11.3-4.4 2.7-1.2 2.8-2.3 4.1-4.9 2.3-1.3 2.3-1.3 5-2.2l2.7-1.1c2.3-.7 2.3-.7 4.3-.7l1-3c2.5-1.6 2.5-1.6 5.8-3.2l3.5-1.9 1.8-.9 9-4.8 3.2-1.6c2.4-1.4 3.8-2.7 5.7-4.6l4.3-1.9c3.1-1.3 5.4-2.5 7.8-4.7 2.9-2.4 2.9-2.4 6.3-3.3 4.1-1.2 6.3-3 9.6-5.7 1.9-1.3 3.5-2.2 5.7-3 3.4-1.4 5.5-3.1 8.3-5.4q3-1.6 6.1-3c1.9-1 1.9-1 3.4-2.7 1.5-1.3 1.5-1.3 3.5-1.3m-4 4v2l-2.6.8a33 33 0 0 0-9.4 5.2v2l-2.7.3c-3.6.8-5.7 2-8.7 4.1q-4.5 3.1-9.5 5.3c-3.1 1.3-3.1 1.3-5.4 3.2a51 51 0 0 1-10.1 5.8 83 83 0 0 0-8.7 5.1L238 260l-2.4 1.5a59 59 0 0 1-6.6 3.4 34 34 0 0 0-6.5 4.2A33 33 0 0 1 212 274v2q-4 2-8.2 3.8a62 62 0 0 0-11.6 6.8q-4.1 2.5-8.5 4.5c-1.7.9-1.7.9-3.7 2.4-2.5 1.9-5.3 3-8.2 4.2-2.6 1.9-2.9 3.2-3.8 6.3q-.4 5.2-.3 10.4V336l-.1 20.8v60.7l-.1 37.7-.1 38.6v59.8l-.1 3c.1 4.6.1 6.7 3.1 10.4a132 132 0 0 0 11 7.6 43 43 0 0 0 6 2.8c3.3 1.5 5.8 3.1 8.8 5.3q3.8 2.6 8 4.4 3 1.7 5.8 3.9l3.8 1.9q5.3 2.6 10.3 5.9c1.9 1.2 1.9 1.2 4.9 2.7q4.7 2.4 9.1 5.3c1.9 1.2 1.9 1.2 5.1 2.8a18 18 0 0 1 5.1 3.3c2.8 2.2 5.5 3.6 8.7 5.2q5.6 2.6 11 5.9l3 1.4c3 1.6 3 1.6 5.2 3.5 3.3 2.5 6.7 4.1 10.4 5.9q3.4 1.8 6.4 4.2l5 2.5q4.8 2.3 9 5.5l4.8 2.4q5.8 2.9 11.4 6.5c1.8 1.1 1.8 1.1 5.1 2.7 2.7 1.4 2.7 1.4 4.1 2.9 1.8 1.7 3.3 2.4 5.7 3.3q10.2 4.7 19.4 11.3a103 103 0 0 0 12.2 6.8q11.3 5.7 21.9 12.8c3.4 1.9 5.6 1.8 9.4 1.3q5.9-2.1 10.5-6.1c2.8-2.1 5.3-3 8.6-4.1 2.7-1.1 4.6-3 6.9-4.8q4.4-2.2 9-4v-2l2-.8c5.1-2.1 10-4.3 14.4-7.7 3.3-2.5 6.8-3.9 10.5-5.5q3.9-2 7.1-5l7-3 2.3-1.9c3.2-2.5 6.5-4.1 10.1-5.8q4.5-2.3 8.8-5.1 9-5.7 18.6-10.4 4.8-2.7 9.2-5.8l3.9-1.9a96 96 0 0 0 9.8-5.7q8.5-5.4 17.5-10c2.8-1.4 4.8-3.2 7.2-5.2a18 18 0 0 1 5.4-2.6c4.2-1.4 7.4-3.6 11-6.1q4-2.6 8.4-4.6c1.8-.9 1.8-.9 5-3 2.8-1.9 2.8-1.9 5.4-2.9 2.4-1 2.4-1 4.1-2.9 3.5-3.2 7.8-4.5 12.3-6.1v-2l1.6-.8c7.7-4 7.7-4 9.6-7.2 1.2-4.4 1.1-8.6 1.1-13.2V315.6c-.1-13.3-.1-13.3-4.4-17.8a83 83 0 0 0-8.8-4.7q-4.2-2.3-8.2-4.9L598 283l-2.6-1.6c-2.4-1.4-2.4-1.4-5.3-2.8a40 40 0 0 1-6.5-4.1q-3.4-2.6-7.4-4.1c-3.2-1.4-3.2-1.4-4.5-2.8-2.3-2.1-4.7-3.2-7.5-4.5a195 195 0 0 1-15.5-8.5 224 224 0 0 0-13.5-7.7q-5.7-3.1-11.2-6.9l-2.9-1.4-7-4a66 66 0 0 0-8.2-4.6 26 26 0 0 1-7.1-4.8c-2.8-2.2-2.8-2.2-5.4-2.3-6.2 2.9-9.3 11-12.5 16.7a69 69 0 0 1-8.8 12C471 253 471 253 471 255l-1.7.8c-2.6 1.4-4.4 3-6.5 5A108 108 0 0 1 439 277l-3.4 1.8c-4.4 1.5-8.6 2.1-13.1 2.8-2.5.4-2.5.4-3.5 1.4l-7 1v2l-8.6-.4-2.5-.2q-5.1-.1-10.3-1c-2.6-.4-2.6-.4-5.6.6l-1-2c-1.8-.6-1.8-.6-4.2-1.1l-2.6-.6-5.4-1.2a38 38 0 0 1-14.1-5.9q-2.5-1.7-5.4-2.8A81 81 0 0 1 327 249l-1.6-2a64 64 0 0 1-8-13.3l-5-8.8-1.8-2.8-1.6-2.1c-3 0-3 0-5 1m327 131v2l2-1zm0 200 1 2Zm1-144h3v2l-3-1zm0 24h3v2l-3-1zm0 24h3v2l-3-1zm0 24h3v2l-3-1zm0 48h3v2l-3-1z"/><path fill="#a31940" d="M308 220.2c2.7 1 3.3 2.5 4.8 5l1.5 2.8 3.2 6a93 93 0 0 0 25.5 31l2 1.7q6.4 4.9 13.8 8.3c2.2 1 2.2 1 5.2 3 1.8.6 1.8.6 3.8 1l2.3.6 2.3.5 4.5 1 2.1.5 6 1.4v2l2.2-.5c2.8-.5 4.1-.2 6.8.5q2 .3 4.3.3l2.4.2h2.5l2.5.2 6.3.3v-2l3.4-.4c3.6-.6 3.6-.6 4.6-1.6l5.3-1c6.3-1 11.6-1.8 17-5.7q2.7-2 6-3.5a81 81 0 0 0 18.4-14.6c2.3-2.2 2.3-2.2 4.3-2.2l.8-1.7q1.9-3.5 4.3-6.6 5-7.2 9-14.8c2-3.5 3.8-6.4 7-9 3 0 5 .4 7.4 2.3l3.3 3c3.5 2.9 7.4 4.6 11.4 6.4q3.5 1.9 6.8 4.4l3.8 2q5.3 2.6 10.2 6l3.8 2q5.2 2.6 10.1 5.7 6.8 4.2 14 7.8c4.7 2.6 8.8 5 13.1 8.5l3.3 1.5c3.5 1.4 6 3 9 5.3 2.6 1.9 5.6 2.9 8.7 4.2l2.3 1.9c3.2 2.5 6.5 4 10.2 5.9q4.4 2.3 8.5 5.2l3.1 1.5c3 1.6 4.1 2.7 6 5.5.4 2.2.4 2.2.5 4.6l.2 2.7q.3 6.7.3 13.4v20.8l.1 22V422l.1 36.2.1 37.2V553l.1 2.9c0 4.2-.2 6.5-2.4 10-3 3-6 4.8-10 6q-.7 1.5-1 3c-2.3 1.2-2.3 1.2-5 2-4 1.6-6 3-9 6l-4 1.6a30 30 0 0 0-9.2 5.2 64 64 0 0 1-9.7 5c-2.2 1.3-2.2 1.3-3.8 2.9-2 2-4.6 2.5-7.3 3.5-2.3 1-4 2.2-6 3.8a57 57 0 0 1-11.4 6.8q-9.3 4.6-18 10.5a58 58 0 0 1-8.8 4.8q-7 3.7-13.7 7.9l-11 6.3a72 72 0 0 0-8.4 5 67 67 0 0 1-6.9 3.8 30 30 0 0 0-6.5 4c-2.9 2.4-6 3.6-9.4 5l-2.4 2a33 33 0 0 1-7 4 43 43 0 0 0-9.9 5.8c-3.3 2.3-7.6 5.2-11.7 5.2v2l-2.6 1.2q-1.4.8-3.3 1.6l-3.2 1.6c-2.6 1.4-4 2.6-5.9 4.6-2 .8-2 .8-4.4 1.4a18 18 0 0 0-7.8 4.2 18 18 0 0 1-13 4.5c-4.8-1.3-8-3.6-12-6.3-3-2-5.9-3.3-9-4.8a245 245 0 0 0-14.8-8.8l-7.9-4.6-13.3-7.5q-4.5-2.5-8.7-5.5a42 42 0 0 0-7-4.1 43 43 0 0 1-9-5.5l-4.9-2.3q-5.9-3-11.5-6.6c-1.7-1.1-1.7-1.1-4.7-2.6a73 73 0 0 1-9-5.2q-4.5-2.9-9-5.3l-2.6-1.5c-2.4-1.5-2.4-1.5-5-2.8q-5.7-3-11-6.2l-6.3-3.7-5.5-3.2q-4.6-2.9-9.5-5.3l-4-2.8a42 42 0 0 0-7-4q-5.9-2.7-11-6.5l-3-1.5c-3-1.5-3-1.5-6-3.4a64 64 0 0 0-7.2-4.1 27 27 0 0 1-6.4-4 23 23 0 0 0-6.5-3.5 23 23 0 0 1-9-5.5l-3.3-2.1c-2.7-2-2.7-2-3.7-4l-.2-4.2V311.5c0-8.7 0-8.7 2.2-12.5 2.3-1.6 2.3-1.6 5.2-3a95 95 0 0 0 8.8-5q5.1-3.3 10.7-5.7c2.3-1.3 2.3-1.3 3.8-2.8 1.8-1.8 3.6-2.6 6-3.6l2.3-1 5.2-2v-2l2-.6c5.5-2.1 9.4-4.4 14-8.3q3.3-1.6 7-3c2.6-1.3 4.6-3.1 7-5l7.5-3.8q8.9-4.6 17.5-10.2 3.7-2.4 7.8-4.3a76 76 0 0 0 7.2-4.3c3.3-2.2 6-2.7 10-3.4l1-2c1.2-2.5 2.3-3 5-4.2l2.1-1c2-.8 2-.8 4-.8v-2c2-1 2-1 3.8-.8m-10 9.3a31 31 0 0 1-10.5 5.3 25 25 0 0 0-6 4.2c-3 2.8-5.6 3.8-9.5 5l-4.4 3.8a17 17 0 0 1-5.6 2.7 18 18 0 0 0-7 4c-2.8 2.4-4.2 3-7.6 4a19 19 0 0 0-9.4 6.5l-7 3-3.5 2.5c-2.5 2-4.8 3-7.9 4-3.6 1.5-3.6 1.5-4.6 3.5s-1 2-3.4 2.8l-2.8.5a22 22 0 0 0-12 7.2c-2.7 2.2-5.5 2.7-8.8 3.5l-6 5-7 3c-2.2 1.5-2.2 1.5-4 4-.7 3.5-.6 6.9-.6 10.3v40.2l.1 21.7v166.5l.1 10.2v8.1c.4 2.6 1.3 3.4 3.4 5q3 .9 6.1 1.3c2.5 1 2.7 2.4 4 4.7l4 2a34 34 0 0 1 8.4 4.5 36 36 0 0 0 8.1 4.6c2.8 1 4.2 1.8 6.4 4 2.2 2 3.5 2.5 6.4 3.4 4.4 1.3 6.3 3.3 9.6 6.5l7.5 3c2.3 1 3.8 1.9 5.6 3.6 3.1 2.7 6.1 3.9 10 5.4l2.3 2c2.5 2 3.5 2.3 6.6 2.9 3.5.7 4 1 6.4 4 3 3.6 5 4.2 9.4 5.3 2.7 1 4.1 2.7 6.2 4.8l6 3q5.2 2.5 10 6l4.5 2c3.6 1.5 5.6 3.2 8.5 6l3.8 1.5c4.2 1.4 6.8 3.7 10.2 6.5l7 3c2.6 1.3 4.6 3.2 7 5l6.8 3c2.2 1 2.2 1 4.7 3 2.3 1.9 3.7 2.6 6.5 3.5 3.1 1 4 1.6 6.3 4 3.4 3.2 6 3.4 10.4 3.9 2.3.6 2.3.6 3.3 2.6l1 2c1.7 1.2 1.7 1.2 3.8 2q1 .6 2.1 1l2.1 1q4.1 2.3 7.8 5.3c3.2 1.7 3.2 1.7 6.6 1.9 4-1.3 5.7-2.8 8.7-5.6 2.6-2.2 5.5-3.3 8.6-4.6q4.4-2 8.3-4.7l5.7-3.4c3.3-2 3.3-2 5.2-3.4 2-1.5 3.7-2.1 6-2.8 3.1-1.1 4.1-1.7 6.5-4.2 3-3 5.4-3.5 9.4-4.7 2.2-.8 3.5-1.7 5.3-3.3a32 32 0 0 1 10-5.5c2.3-1.5 2.3-1.5 4-3v-2l9-2v-2q3.8-2 8-3.7c4.6-2 8.5-4.8 12.6-7.7 2.6-1.8 5.2-2.6 8.3-3.6l6-5 7-3 3-2.5a27 27 0 0 1 9.1-4.8q3.3-1.3 6-3.7v-2l2-.3 2.7-.5 2.7-.4a9 9 0 0 0 5.5-3.8v-2l2-.4c5.6-1.5 9.5-3.4 14.1-7.1a31 31 0 0 1 9-4.5v-2l4-1v-2l1.5-.2c6.1-1 9.1-3 13.5-7.2 2.6-2.2 5.5-2.7 9-3.6 4.7-3 10-6.4 12-12q-.7-.4-1-1-.3-2-.3-4.1v-2.7l.1-3V528l.1-14.2.1-28V450l.1-2.4.1-37.1.1-38.1.1-23.5v-35.5l.1-3c0-4.5 0-6.6-3-10.4-2.6-2-2.6-2-6-3-4.3-1.1-5.6-2.8-8.6-6l-6.9-3c-2.8-1.2-4.8-3-7-5l-7-3c-2-1-2-1-4.7-3a18 18 0 0 0-6.4-3.3c-4-1.4-6.7-3.8-10-6.6q-3.4-1.6-7-3c-2.7-1.3-4.7-3.1-7-5l-6.9-3c-2-1-2-1-4.7-3.1a13 13 0 0 0-6.6-3q-2-.3-3.8-1-.6-.7-1-1.8c-1.5-3-3.2-3.3-6.2-4.4-4.6-2-8-4.2-12-7.3a19 19 0 0 0-5.5-3c-3.3-1.4-3.3-1.4-6-4.1-2.3-2.3-2.3-2.3-4.4-2.2-1.9.9-1.9.9-3 3.3q-.6 1.4-.9 2.9a20 20 0 0 1-6 9.7l-1 3.2c-1.3 3.5-1.9 3.3-5 4.8l-2.5 3.4a30 30 0 0 1-7.5 7.6l-2.2 2.3A76 76 0 0 1 442 279v2l-3.3.5-4.4.8q-1 0-2 .3c-5 .9-8.2 2.4-12.3 5.4-8.5 2.8-18.2 2-27 1.7l-2.5-.1c-10.7-.6-10.7-.6-14-4.1-2.8-2.7-7-3-10.9-3.8A22 22 0 0 1 355 276l-4.5-2a26 26 0 0 1-9.5-7l-2.7-1c-3-1.2-3-2.2-4.3-5-2.5-2.7-2.5-2.7-5-5h-2l-.8-2.2a17 17 0 0 0-7.2-8.8l-3.2-6-1.6-3.4-1.2-2.6h-2l-2-7c-5-2.2-7.3.4-11 3.5"/><path fill="#f4e64c" d="m519.3 383.8 3.2-.2h5.8c5 .8 8.1 3.4 11.1 7.3q4.8 6.7 8.1 14.2a157 157 0 0 0 8 14l4 7.1 7.5 13 1.5 2.7 2.8 4.8 2.5 4.4 3.1 5.3c2.6 3.3 4.2 3.6 8.2 4.2 5.5.8 5.5.8 7.8 3.8 1.3 3.2 1.3 4.5.1 7.6-3 2-3.9 2.3-7.5 2.3h-33.8c-5.7 0-9.7-.7-14.7-3.4-.4-6.3-.4-6.3 1.2-8.6 2.4-1.7 4-1.7 7-1.4h4.8a12 12 0 0 0-.6-10c-2-3.5-3.7-5.3-7.4-7-5-1-9.7-1-14.7-1l-2.5.2h-5.2l-8 .1-5 .2h-2.4c-5 .2-7.6.9-11.2 4.6-2 3-2.3 3.8-2 7.1v3.8l2.1 1 2.8 1 2.7 1c2.4 1 2.4 1 4.4 3 .4 3 .4 3 0 6-4.5 4-9.5 3.6-15.2 3.5h-27.5c-8.6-.1-8.6-.1-12.3-2.4-1.6-2.9-1.6-2.9-2-6 1.2-2.9 1.2-2.9 4-5q3.7-.6 7.5-.6c5-.8 7.4-5.3 10-9.2A55 55 0 0 0 474 439l3.7-6q1.9-3 3.4-6.1 2.6-5 6-10l3-6c1-2 1-2 2.4-3.8 1.5-2 2.2-3.9 3.2-6.2 5.4-12.7 10.2-17 23.6-17.1"/><path fill="#0b130f" d="M402.1 84.8h3c9.8 0 18.2.9 26.6 6 2.6 1.4 5.1 2 8 2.8 5 1.2 7.5 3 11.3 6.4l3.5 2a83 83 0 0 1 30.5 32v2q.9.2 2 .7c3 2 3.1 4 4 7.7 1.6 6.2 1.6 6.2 4 8.8 5.3 7.4 4.4 18.3 4.7 26.9l.1 3.8q.4 14.2-.8 28 .9.7 1.8 1l2.4 1.4 2.4 1.3 4.5 3c2 1.5 2 1.5 5.4 2.8 3.5 1.5 3.5 1.5 5.3 3.5 2.5 2.4 4.6 3.2 8 4.2 2.8.8 2.8.8 5.2 1.8l1 3c2 1 2 1 5 2a54 54 0 0 1 14 8q3 1.8 6.1 3c2 1.2 2 1.2 4.4 3.2a18 18 0 0 0 6.4 3.3c3.1 1 4.4 1.8 7 4.2a18 18 0 0 0 7.6 4c4.4 1.1 6.3 3.1 9.5 6.3q3.3 1.8 6.8 3.2c2.2.8 2.2.8 4.8 3a12 12 0 0 0 6 2.8c3.4 1 3.4 1 5.7 3.5 2.7 2.7 4 3.2 7.4 4.4a31 31 0 0 1 14.3 11.1c2.4 5.6 2.3 10.9 2.2 16.8l.1 3.2v100.3l.1 37.8v38.9l.1 21.8v41.2a30 30 0 0 1-6.7 20.5c-3.2 1.9-6.4 3.1-9.8 4.6-2 1-2 1-4 3-2.8 2.8-5.9 3.5-9.6 5-2.3 1-3.7 2-5.5 3.6a13 13 0 0 1-7.2 3.5l-3.7.9-1 3c-1.8 1-1.8 1-4 1.9a23 23 0 0 0-8.5 5.1c-3.3 3-6.3 4-10.5 5.3-2 .7-2 .7-4.5 3.2-3 3-6 4-10.2 5.5-2.9 1.3-4.9 3-7.3 5l-6.9 3c-2 1-2 1-4.6 3-3 2.5-5.9 3.1-9.5 4-2 1-2 1-3 3-1.4 2.8-2.9 3-5.8 4a22 22 0 0 0-8.2 4.5c-3.5 2.9-6.6 4-10.8 5.5-2.7 1.3-4.2 2.9-6.2 5l-6.9 3c-2 1-2 1-4.6 3-2.4 2-4.3 2.9-7 4s-4.4 1.9-6.5 4c-2.8 2.8-6 3.6-9.7 5-2.8 1.1-4.2 2.9-6.3 5q-2.9 1.2-5.8 2a36 36 0 0 0-6.8 4 33 33 0 0 1-11.4 5l-.9 2c-1.5 2.9-2.9 3-5.9 4a26 26 0 0 0-9.5 5.8c-5 3.8-12.4 6.8-18.7 7.3-2-.9-2-.9-4-2.2l-2-1.4-2-1.4-2.7-1.5-5-3.5a30 30 0 0 0-7.4-3.5c-3-1-4-1.5-6.4-4a12 12 0 0 0-7-4c-4.4-1.2-6.3-3.2-9.5-6.5l-6.9-3q-3.9-2-7-5l-3.5-1.5a30 30 0 0 1-7-4c-3.3-2.5-6.8-4-10.6-5.5-2.7-1.2-4.7-3.1-7-5l-4.5-2a34 34 0 0 1-9.5-6q-5-2.7-10-5v-2l-2-.5a31 31 0 0 1-14-7.5l-4.5-2c-4.2-1.7-7-4.1-10.5-7l-7-3.1c-2-1-2-1-5-3v-2l-1.7-.4a36 36 0 0 1-12.5-6.2c-2.7-2-5.7-3-8.8-4.3-2-1-2-1-3.5-2.5-1.9-2-3.8-2.5-6.3-3.4-4.6-1.6-7.5-4-11.2-7.1l-7.6-3.9a56 56 0 0 1-8.4-5.1l-2.6-1c-2.4-1-2.4-1-4.6-2.9a29 29 0 0 0-10.5-4.6c-3.3-2.1-4.3-4.9-5.3-8.5q-.5-5.6-.4-11.1V304.8c0-8.7 0-8.7 3.4-12.9a53 53 0 0 1 15-9l3-2.3c3.4-3 6.7-4.2 11-5.7q1.5-.3 3-1l1-1.8c1.4-2.9 2.8-3.2 5.8-4.2a32 32 0 0 0 10.2-6q2.3-.8 4.5-2c2.7-1 4.6-2 7-4 2.4-1.8 4.3-2.7 7-4 2.8-1 4.3-1.7 6.4-4 3-2.7 6.1-3.6 9.8-5 2.3-1 2.3-1 4.3-3 2.8-2.7 6-3.6 9.6-5 3-1.2 5-2.8 7.4-5q5.2-3 11-5v-2l2-.6c8-3 8-3 11.1-5.9 3.5-3 6.5-4 11-5.5 1-1 1-1 1-4v-8.7l-.2-7.3c-.4-26-.4-26 5-34 2-3.7 3-7.7 4-11.8 1.2-3.3 2.8-5.3 5.1-8.2l2-4c1.7-3.7 4-6 7-9l1.4-2.4c1.7-2.7 3.6-4.3 6.1-6.2 1.5-1.2 1.5-1.2 3.7-3.6Q344 102.9 355 97l1.8-1.5c2.7-1.8 5-2.2 8.1-3 3.7-.7 6-1.3 9-3.5 8-5.2 19-4.2 28.2-4.2m-26 6.4q-6.4 2.2-13 3.8c-3 1-3 1-6 3v2c-.4 0-.4 0-1.9.5A23 23 0 0 0 343 108l-4 3a55 55 0 0 0-11 10.5c-2 2.5-2 2.5-4.5 4.7-3.4 3.7-7.5 9.5-7.5 14.7h-2c-2.8 4.8-4 9.7-5.2 15q-1.2 4.4-2.9 8.7c-4.3 11.2-3 24-2.8 35.8v3.7l.1 3.2c-.2 2.6-.2 2.6-2.2 5.6-2 1.2-2 1.2-4.5 2.2a41 41 0 0 0-7.5 3.8v2q-1.1.4-2.3.5A23 23 0 0 0 273 229a77 77 0 0 1-7.6 3.8c-2.4 1.3-2.4 1.3-4.5 2.9a28 28 0 0 1-6.4 3.3 39 39 0 0 0-9.5 6l-5 2.2q-4.7 2.5-8.8 5.5a34 34 0 0 1-6 3c-3.2 1.3-3.2 1.3-5 3.3-2.8 2.7-5.5 3.7-8.9 5a72 72 0 0 0-8.5 5l-5 2.7c-2.8 1.3-2.8 1.3-5 3.3a27 27 0 0 1-7.3 4 39 39 0 0 0-9.5 6l-5 2.6c-4.8 2.4-9.4 4.6-12.2 9.4-1.3 4.6-1 9-1 13.7V555c0 15.6 0 15.6 3.6 19.9a20 20 0 0 0 5.8 3 53 53 0 0 1 10 6c2.7 1.9 5.7 3 8.8 4.3 2 .9 2 .9 3.5 2.4 1.8 1.9 3.5 2.5 5.8 3.5 3.8 1.5 6.5 3.5 9.7 6l4.3 2c3.8 1.5 6.8 3.4 10 5.9q2.5 1.6 5.4 2.8c3.3 1.3 3.3 1.3 4.7 2.8 2 1.9 3.8 2.8 6.3 3.9q5.9 2.8 11.3 6.5 4 2.4 8.2 4.1c1.8 1 1.8 1 3.2 2.5 2.1 2 4.4 2.9 7.1 4a24 24 0 0 1 8.5 5.5c2.2 1 2.2 1 4.8 1.9 3.2 1.3 5.8 2.4 8.4 4.6 3.1 2.8 6 4 9.8 5.5l1.8 2c3 2.8 6.1 3.6 10 5 2.6 1.1 4.1 2.9 6.2 5 8.3 4 8.3 4 12 4v2l2.5 1.4a306 306 0 0 1 25.7 15q3.8 2.2 7.8 4a36 36 0 0 1 7.5 4.6c3 2.4 6 3.5 9.4 5 2.7 1.3 4.7 3.1 7.1 5 7.5 4.1 7.5 4.1 11.4 3.8l8.6-3.1 3.1-1.2a23 23 0 0 0 7-5.5l4.4-2.1c2.8-1.1 5-2.2 7.5-4v-2l2-.4a31 31 0 0 0 14-7.5q3.4-1.6 7-3c2.6-1.2 4.6-3.1 7-5q3.7-2 7.6-3.7c2.4-1.2 2.4-1.2 5.6-3.4 2.8-2 2.8-2 6.3-3.4 3.4-1.5 5.6-3.1 8.5-5.5l6.1-3c2-1 2-1 3.3-2.5 2-1.9 3.8-2.5 6.4-3.4 4.5-1.6 7.5-4 11.2-7.1l7-3.1c2-1 2-1 5-3v-2l1.7-.2c7.5-2.2 14.5-6.9 21-11a197 197 0 0 1 14.1-8q4.8-2.6 9.2-5.7l4-2q3.6-1.8 7-4 4.5-2.9 9.1-5c2-1 2-1 3.3-2.5 2.6-2.5 6-3.2 9.4-4.5l2.2-1 1-3 6-2c5.5-2.5 5.5-2.5 7.3-4.5 3-2.7 7.1-4 11-5.7 3.4-2.2 4.1-4 5.7-7.8q.8-3.9 1.1-8l.3-2.2c1-10.3.8-20.5.8-30.8V337.8q0-10-.2-19.9v-2.4q0-3.6-.3-7v-4c-.8-4-2.2-6.2-4.7-9.6l-1.4-1.8a23 23 0 0 0-12.3-8.2c-2.9-1.1-4.9-3-7.3-5l-7.6-3.6q-4.4-2.4-8.4-5.4l-6-3q-4.2-2-8-5-3-1.6-6.2-2.8c-1.8-1.2-1.8-1.2-3.3-2.7a15 15 0 0 0-5.8-3.2 42 42 0 0 1-10-6q-4.1-2.6-8.7-4.2l-2.4-2a28 28 0 0 0-7-4 34 34 0 0 1-9.6-6c-7.8-4-7.8-4-11-4l-1-3c-2.4-1.3-2.4-1.3-5.5-2.7q-1.5-1-3.2-1.7C507 219 507 219 504 218c-3.5-1.7-4.9-2.6-6.9-6-.9-6.7.1-13.8.8-20.7q.3-7.4 0-14.6-.2-1.3-.2-2.7a50 50 0 0 0-5-20.3q-3-6.2-4.9-13l-.7-1.7q-1.5-.3-3-1-1.1-2.3-2-5a56 56 0 0 0-7.7-10.4C473 121 473 121 472 119h-2v-2a95 95 0 0 0-21.7-16.5c-2.3-1.5-2.3-1.5-3.7-3-2.6-2.3-5.7-2.8-9-3.7q-1 0-2-.5L423 91v-2c-15.2-2.5-32.6-4.7-46.9 2.2"/><path fill="#f4e64c" d="M218 384.9h8.5l9.8-.1h21.1l18.3-.1h33c5.5 0 9.5.7 14.3 3.3 1.6 3 1 6.6.8 10l-.1 3.2c-.8 3.4-2 4.7-4.7 6.8a13 13 0 0 1-7.7-2c-1.7-2.6-2-5.1-2.3-8.1-1-2-1-2-3.3-3-5.1-1.2-10-1.1-15.3-1.1h-37.1c-2.3.2-2.3.2-5.3 2.2-.3 2-.3 2-.3 4.7v8.6c.2 9.2.2 9.2 1.3 11.7 4.4 2.8 9.2 2.2 14 2h5.4l8.4-.2 8.2-.1 2.5-.1c4.2 0 6 0 9.6 2.5l1.9 1.9-1 3c-3.3 1.7-7 1-10.6 1H263l-2.4-.1h-2.1l-10.5 1v28h2v2q15.5 1.4 30.9 1.3h4c17.6 0 17.6 0 22.6-2.2 2-2.5 2.5-5 3-8 .5-2 .5-2 2.5-5 2.3-1 2.3-1 5-1 3 1.8 4.7 2.9 5.7 6.3q.5 4.4 0 8.9l-.1 3.2c-.6 2.6-.6 2.6-3.6 4.6-8 1.3-16.1 1.2-24.1 1.2h-18.1q-23.9 0-47.6-.6l-2.4-.1-6.4-.1-3.6-.2c-2.8-.2-2.8-.2-4.8-1.2v-5l2.8-.5 3.5-.8 3.6-.7c3-1 4.3-1.4 6-4 1-3 1.3-5.7 1.3-9v-36.5q0-8.3-1.2-16.5a61 61 0 0 0-11.2-2.5c-3.8-.5-3.8-.5-6.8-2.5l1-5c2.3-1.1 3.6-1.1 6-1.1"/><path fill="#cc1d51" d="m332 396 3 1v2l2.5-.1 3.3-.1 3.3-.2c2.9.4 2.9.4 4.6 2.1 1.5 2.7 1.7 4.2 1.7 7.3v9.5l-.1 6.9v26.2c-.3 2.6-1 4.2-2.3 6.4l-2.3-.1h-3.1l-3-.1c-2.6.2-2.6.2-4.6 2.2h-3l-.6-2.2c-3.1-12.4-3.1-12.4-7-14.8a20 20 0 0 0-14.1-1.3c-4 2.3-5 6.3-6.4 10.5-.9 2.8-.9 2.8-2.9 4.8-1.9.3-1.9.3-4.2.3h-14.5l-9.4.1h-8.8c-6.4-.1-6.4-.1-9.7-1.7-2.4-2.9-1.8-6.3-1.6-9.9v-2.3l.2-5.5c3.1-1.6 6.4-1.1 9.8-1.1h22q6.6 0 13.2 1.1c3.4-.4 3.4-.4 6-1 1.4-9.7 1.4-9.7.1-14-5.4-5.2-12.3-5.4-19.3-5.3l-5.2-.1h-18.5c-2.3 0-2.3 0-6.1-.6a11 11 0 0 1-3.2-7.6l.3-2.6.2-2.6c.7-2.2.7-2.2 2.4-3.4 2.8-1 4.6-.8 7.5-.4q7.3.7 14.6.6l2-.1 8.3-.1 6.1-.2h3.7c3.7.5 4.8 1.4 7.1 4.4l3 6c4.3 4.3 11.2 4.2 16.9 4.6 3.3-.9 4.3-2.8 6.1-5.6.8-3.3.8-3.3 1.2-6.8l.5-3.5z"/><path fill="#d65c4e" d="m300 329 2.1-.9c4.3-1.6 8.3-1.4 12.9-1.4l2.7-.1c5.1 0 8 .4 12.3 3.4 2.9-.7 2.9-.7 6-2 5.8-2.1 11-2.5 17-1l2 1.5c2.5 1.8 3.8 1.8 6.8 1.7l2.4-.1 1.8-.1 1 2 2-2 3 2h-2l1 4 2-2.2c4.3-4.2 8.6-7.5 14.7-8.3 3.5.5 5.3 1.7 8.3 3.5 2.1-.2 2.1-.2 4-1 6.9-2 14-1 21 0l3-1q4-.2 8 0l2 2a21 21 0 0 0 7.3-2.1c3.8-1.2 6.9-.9 10.7.1 3.2 1.8 3.8 2.5 5 6l.1 4v2.1c-.2 3.1-.8 4.6-3.2 6.8-7.1 5.2-7.1 5.2-11.4 4.7-2.5-1.6-2.5-1.6-4.5-4.6-.2-2.3-.2-2.3-.1-4.7v-2.4l.1-1.9h-2l-.3 2.3-.5 3.1-.5 3c-.7 2.6-.7 2.6-3.7 4.6-3.4.4-3.4.4-7 0-2.9-2.5-2.9-2.5-5-5l-2.5 1c-4.8 1.4-9.3 1-14.3.7-5.2-.1-7.3.7-11.2 4.3-3.1 0-3.1 0-6-1l-1.8-1.8c-3.4-3.4-7.7-4.6-12.2-6.2l.1 3.4c-.1 3.6-.1 3.6-2.1 5.6-3.5-.1-3.5-.1-7-1-1.4-2.1-1.4-2.1-2-4-6.5.6-6.5.6-9 2.6-3 2.1-5.4 1.7-9 1.4l-2-1a15 15 0 0 0-6.2-1.5l-2.4-.2-4.9-.4-2.4-.2-2.2-.2c-2.4-.6-3.3-1.6-4.9-3.5l-1.7-1.7-1.3-1.3a48 48 0 0 0-6.9 4 37 37 0 0 1-9.1 4l-1.5 1.7c-1.5 1.3-1.5 1.3-4.5 1.2-3-.9-3-.9-4.9-2.5-1.5-3.2-1.3-5.9-1.1-9.4l-2-1-.9 3.8q-.9 3.7-2.1 7.2h-2v2c-4-.2-6.4-1-9.2-3.7a17 17 0 0 1-4.8-9.3c.3-4.2.6-6.5 3-10 2.6-.9 4.3-1.2 7-1.2h2.1c1.9.2 1.9.2 4.9 2.2v2c1.9-.3 1.9-.3 4-1l1-3c4.6-2 9-.6 13 2"/><path fill="#d02950" d="m519 485 2 2 7 2v2l3.9-.1c3.9 0 3.9 0 6.1 1.1l3.2-1a15 15 0 0 1 12.1 1.2c3.6 1.1 6.1.2 9.6-.8 2.1-.4 2.1-.4 5.1.6 1.4 2.8 1.4 2.8 2 6-1.2 2.1-1.2 2.1-3 4l-.9 2.6c-1.3 2.8-2.6 3.6-5.1 5.4l-.8 2.1-1.2 1.9c-6.1 1.3-12.4 1.1-18.6 1.1h-8.8q-3.9-.2-7.6-1.1v2c-5.4.9-8.9 1.2-14-1l-4.8.7c-4.7.6-9.5.4-14.2.4h-3.2c-8.6 0-8.6 0-12.8-.7-2.9-.4-4.2-.2-7 .6l-7.1.1h-3.8c-3.1-.1-3.1-.1-5.1-1.1h-4l-2.4.1-5 .1-2.4.1H436c-2.6-.4-3.5-1.2-5-3.3.1-4.4 1.7-7.5 3.9-11.2q2.4-4.2 4.1-8.8c6.2-.4 8.9.1 14 4h2l1-8h4v-2c4.1.7 7.5 1.5 10.5 4.6 1.9 1.7 3 2.1 5.5 2.4l5-1h3l1-2h6l1-2c3.5-1.2 6.3-1.1 10-1l2 1v4c2.7.3 2.7.3 6 0 2.6-2.4 2.6-2.4 5-5 2.3-1.3 2.3-1.3 4-2"/><path fill="#191012" d="M413.4 161.7c4.7 1.7 7.1 4.5 10.4 8a41 41 0 0 0 5.3 4.9c3.7 3 6.7 6.7 10 10.4q.3.5 1 1a54 54 0 0 1-4 18l-1.7 4.7-.7 2.2q-1 3-1.7 6c-1 3-1 3-2.7 5a32 32 0 0 1-10 2.6c-5.7.9-10.2 2.2-15.3 4.5-3.2.7-5 .7-7.7-1a72 72 0 0 1-8-7.7l-5.8-5.8-1.9-2c-3.8-4-5.7-6.7-5.6-12.5a74 74 0 0 1 2.2-9.3l.7-2.5c4.5-16.1 4.5-16.1 9.1-19.2l7.2-1.4c4.4-.8 8.3-1.6 12.3-3.8 3.5-1.8 3.5-1.8 7-2.1"/><path fill="#d02950" d="M397 485a11 11 0 0 1 5 5v2q5.8.2 11.6-.7c4.5-.4 6.5.5 10.4 2.7l1 3h2l.2 6.8v3.8c-.2 3.6-.6 5-3.2 7.4-3 .9-5.2 1.2-8.2.6q-4.8-.9-9.6-.6H400v2c-1.7.7-1.7.7-4 1l-2.2-1.5c-3.6-2-5.7-1.6-9.8-1.2l-3.6.3q-4.2.5-8.4 1.4v-2l-1.7.6c-2.7.5-4.6.2-7.3-.4l-2.5-.6-4.6-1.2c-2-.4-2-.4-4.4 1-5 2.3-10 2.6-15.5 2.6l-2-1-9.8.9c-5.2.4-8.6-.2-13.2-3a21 21 0 0 1-2.3-11.4l-.1-3.4c.4-3.1.4-3.1 2.2-5.4 2.2-1.7 2.2-1.7 5.7-2 3.5 1.3 3.5 1.3 4.9 3.4q1.5 3.5 2.6 6.9c2-3 2-3 2.9-5.8 1.6-4.4 3.5-7.2 7.6-9.5 3.9-1 6.7 0 10.5 1.3l2 3a37 37 0 0 0 19 0l3-3c3.3-1 5.4-1.1 8.7-.3 2.3 1.3 2.3 1.3 3.8 3.5l1.5 1.8c3.2.3 3.2.3 6 0l.8-2.3c1.6-3.4 3.3-5.7 7.3-5.6"/><path fill="#f4e64c" d="m339 385 20.3-.1 7-.1h18.5c2.2.2 2.2.2 5.2 2.2.3 2.5.3 2.5 0 5-2.7 2.7-4.2 2.3-7.9 2.5-5.8.3-5.8.3-9.1 2.5-2.4 9-1.2 20-1.2 29.3v14l-.1 2.6c.1 13.4.1 13.4 3.9 18.1 3.4 1.4 6.6 1.6 10.2 1.7l2.3.1 6.9.2 2.1.1c7.6.2 14.6.1 21.9-2.1 2.5-2.5 2.3-3.5 2.6-7l.2-3 .3-5.8c.4-6.7.4-6.7 3.1-9.4 3.2-.9 4.8-.9 7.8.2 4.6 4.6 3.3 15.6 3.4 21.9l.1 2.8v2.7l.1 2.5c-.6 2.1-.6 2.1-2.6 3.7-4 1.9-7.5 1.8-11.9 1.8h-17.5l-12.7-.1H346c-5.8-.1-5.8-.1-8-2.3-.2-2.6-.2-2.6 0-5 2.2-2.2 7.2-1.5 10.2-1.6 2.8-.4 2.8-.4 4.8-2.4q1.3-4.4 1.1-9.1l.1-3.1V416l.1-3.3c-.1-5.9-.5-11-2.3-16.7-2-1.8-3.3-2-5.9-2l-2.2.1c-3.9-.1-3.9-.1-6-1.8-1.2-3.1-.2-4.4 1.1-7.3"/><path fill="#d02951" d="M225.2 378.9h85.2c13.3 0 13.3 0 19.6 2q1.5-.3 3-1h54.2q4 0 7.8 1c1.5 2.3 1.5 2.3 2.7 5l1.3 2.7c1.8 4.4 2.1 7.7 2 12.4q-8.4 2.1-17 3c-1.3 4.4-.5 6.8 1 11l-1 4v9.6a185 185 0 0 1-1 24.4h9.7c3.3 0 3.3 0 5.4-.6 2.7-.5 4.4.2 7 1 4.7 1.6 4.7 1.6 7 1.6 1.3-4.2 1-8.5.8-13a24 24 0 0 1 2.1-12c4.4-1.6 9.3-1.2 14-1.2l2.7-.1h5.1c2.7.4 4.1 1.5 6.2 3.3a39 39 0 0 1 1.8 17.6c.2 2.4.2 2.4 1.5 4.3 1.7 1 1.7 1 4.5.8l3.2-.7 6 1 .8-1.7c1.2-2.3 2.5-4 4.1-6a29 29 0 0 0 5.3-11.2c1.2-3.2 3.6-5.4 5.8-8.1q1.7-4.5 3-9h2l.7-1.8c2.3-5.2 4.5-10.2 8.3-14.5 2-2.7 2-2.7 3-6 1.1-4 2.6-6 5.4-9 1.6-1.7 1.6-1.7 3-4.3 1.6-2.4 1.6-2.4 4.5-3.1l3.6-.1 3.8-.1 3.7-.1 3-.1h8l2.5.2c4.3.2 6.1.6 9.5 3.4 2 2.5 2 2.5 2 4.5h2l1.3 2.5a115 115 0 0 0 9.2 15.5 83 83 0 0 1 8 13.9c2 4.3 4.4 8 7.1 12q2.9 4.6 5.3 9.9 1.8 3.8 4.1 7.2l1.1 2.8c2 2.2 2 2.2 3.8 2.5h2.3a11 11 0 0 1 8.7 4.2A29 29 0 0 1 601 479c-2.2 1.4-3.5 2-6 1.8l-2.3-.7a52 52 0 0 0-16.7-.4c-13.4 1-28.5 1.2-41-4.7-2.7-2.6-2.3-4.1-2.3-7.8V464c.3-3.4 1.3-5.3 3.3-8.1 2.8-1.5 4.1-1 7.2 0l2.8 1c-1-3.4-1.6-4.7-4.7-6.7a18 18 0 0 0-9.7-1q-8.2.9-16.4.9h-2c-5 0-5 0-7.2-1.2h-6l-1 6 1.7.2c4.3 1.6 6.7 4.9 9 8.8 1.4 3.2 2.3 5.5 2.3 9q-2.5 4.6-7 7h-8.6l-2.7-.1-5.5-.1-8.3-.2q-14.4-.2-28.6-2.2c-3.2-.4-6-.7-9.3-.4l-2 3c-2.8.8-5 1.3-7.9.5-3-.7-6-.5-9-.4q-3.9-.2-7.4-.6-9.8-.7-19.7-.5h-4q-8.5 0-16.9.2c-30.2.3-30.2.3-43-3.2-.5.7-.5.7-2 4q-8.7.1-17.2-.5-10-.7-20.2-.6h-23q-17.8-.2-35.6.8-14.7.9-28-5.7c-2.6-5-1.5-12.5 0-17.7q.3-1.1 1-2.3a27 27 0 0 1 12 0c2-3.1 2.1-4 2.2-7.5v-8.7l.1-6.4v-16l.1-3c0-6.7 0-6.7-2.4-10-2.6-1.7-4-1.7-7-1.4-3 0-3 0-5.3-2.1-2.2-3.4-2.3-5.4-2.2-9.5V386c.4-3 .4-3 2.4-6 6-1.1 12.1-1.1 18.2-1.1m-18.2 3.7a18 18 0 0 0-1 10.4c1.3 2.8 1.3 2.8 4 5q5.3 1.9 11 3a64 64 0 0 1 2.3 17.9v22.8l.1 2.7c0 6 0 6-1.8 9.2-2 1.9-3.3 1.9-6 1.9-3 .3-4.5.4-7 2A19 19 0 0 0 206 469c1 2.6 1.6 3.8 4 5.3 11 4 22.6 3.3 34.2 3.2h62.2l9.7-.1h7.9c2.5-.5 3.4-1.3 5-3.4l1-3 2-1 .7 1.9c1.6 2.6 2.4 3 5.3 4 10.3 1.4 21 1.3 31.3 1.2h7.2l15.2-.1h18l7-.1h8.1c3.2 0 3.2 0 5.4.7 3.1.8 5.8-.5 8.8-1.6l3-2q4.1.5 8.1 1.5c6.2 1.4 12 1.9 18.3 1.9h8.8q4.6 0 9.1.2h8.5c4.4 0 7.3-.2 10.8-3 2.4-2.6 2.4-2.6 3-4.6-1-4.6-2-7.7-5.6-11l-3.7-1.5c-3.3-1.5-3.3-1.5-4.5-4 .2-2.5.2-2.5 1.8-4.7 3.7-2.8 6.1-3 10.7-2.3 7.4 1 15.1.5 22.6.3h3.6l3.4-.1c3.6.4 6 1.4 9.1 3.3a21 21 0 0 1 2 6c-1.9 1.9-5.2 1.4-7.8 1.6-2.6.5-3.5 1.3-5.2 3.4a16 16 0 0 0-1 10c2.4 3.9 5.3 4.6 9.6 5.6 4.4.8 9 .7 13.3.7h3.1l6.5-.1H591c2.1-.2 2.1-.2 5.1-1.2a17 17 0 0 0 1-10c-2-4.1-3.3-5.6-7.4-7.7-3.6-1.3-3.6-1.3-6.7-2-4.6-2.1-5.8-6-7.9-10.3l-3.3-6-2.7-5h-2l-.8-2.6a46 46 0 0 0-4.4-9q-4.8-8-9-16.4l-5.8-9-1.4-2.8c-2.8-5.4-5.8-11-11.6-13.2q-7-.6-14-.4l-3.8-.1c-9.4-.1-9.4-.1-13.4 2.8L501 387l-1.7 1.9a49 49 0 0 0-7.4 13.9c-1.2 2.8-3 4.9-4.9 7.2l-3.8 7.6a39 39 0 0 1-4.2 6.4l-2.5 4.9a95 95 0 0 1-6.5 11l-1.3 3.4A40 40 0 0 1 460 456c-2.4 1-3.5 1.2-6 .5-2.7-.6-3.9 0-6.3 1.5l-2 1-1.7 1c-1.2-2.4-1.2-4.1-1.2-6.8v-3l-.2-6c-.2-7.4-.2-7.4-2.5-11.3-3.6-3.2-6.9-3-11.5-3.1h-3.4c-3.2.2-5.4.6-8.2 2.2-2.4 3.2-2.2 6-2 9.8.1 4.9-.3 8.7-2 13.2-1.8 1.8-4 1.2-6.4 1.2h-16.8c-2.5-.2-4.5-.3-6.8-1.2-2-3.2-2.3-4-2.3-7.6v-5.8l.1-3.2v-31.2c.2-2.2.2-2.2 1.2-5.2l2.8-.3 3.6-.4 3.5-.4c3.1-1 3.1-1 4.5-2.7 1.3-5-.3-10.7-2.4-15.2a21 21 0 0 0-10.2-2.2h-43.3A21 21 0 0 0 330 385h-2v-2a51 51 0 0 0-17.3-2.3h-3l-10-.1-7-.1-14.7-.1-18.7-.2-14.4-.1-6.9-.1h-9.7l-2.9-.1c-13 0-13 0-16.4 2.7"/><path fill="#4a242e" d="M408 97q-.7 4.2-2.2 7.9c-.8 3.1-.8 3.1.6 6.5l1.6 2.6h-2v-2h-2c-1.4-2.8-1.1-5-1.1-8.1l.1-3.3V98c-11.8-3.3-29.2 3.1-40 8-5.4 3.1-9.8 6.4-12.2 12.3-1.3 5.3-.6 10.4.2 15.7-6.7 1.3-12.4.7-19-1l6-2.5 2-.5 3 2h5v-4c-3.8-1.3-5.4-.4-9 1-2.8-3.1-3.2-4.9-3-9l2.2.3c3.1.3 5.7.3 8.8-.3 2-2 3.1-4 4.5-6.5a26 26 0 0 1 16.2-12.3l5.8-1.3c3.4-.9 5.6-2.1 8.5-3.9 7.8-2.7 18.9-3.7 26 1m0 17 3.8 2.8 2.2 1.6a31 31 0 0 1 5 4.6v2c6.2 1.8 9.7 1.9 16 0l4.7.6c4 .6 4 .6 6.7-1.4l3.6-5.2c4-.4 6.8-.4 10.6.9 5.5 4.7 9.6 11 13.4 17.1l1.4 2.2c3.7 6 3.7 6 3 10.2-1.4 2.6-1.4 2.6-3.4 5.6l-1 5h-1l.4-4.2.3-2.3c.3-2.5.3-2.5.9-5 .9-5.6-2.4-10.8-5.5-15.3L463 126l-1.5-1.7c-2.4-2-4.6-2.2-7.6-2.5-1.9.2-1.9.2-4.3 2.6L448 127c-3.8 1.9-8.5 1.6-12.7 1.8l-3 .2c-6.4.4-10-.1-15.3-4-2.7-2.5-2.7-2.5-5-5l-2.3-2.2C408 116 408 116 408 114m-79 20 3 1-2.2 2.1c-3.1 3-4.8 6.2-6.8 9.9l-1.5 2.3a33 33 0 0 0-3.1 8.6q-1 4.6-2.5 9.1a66 66 0 0 0-2.9 23l1 1 4.8-.2c3.4 0 4.9 0 8 1.8q4.3 4.5 8.2 9.4l-1 2-1.6-2.2c-6-7.5-6-7.5-10.3-8.4l-5.6.5c-2.5.1-2.5.1-4.8-1-2.9-3.2-2-6.6-1.9-10.8l.2-3.1v-2.3c.3-6.2 2.9-11 5.6-16.5 1.3-3 2-5.4 2.5-8.6.7-4.9 2.5-7 5.9-10.6l3-6zm143 26c2.6 2.6 3.6 5.6 5 9l1.4-1.3 1.8-1.8 1.9-1.7c1.9-1.2 1.9-1.2 4.1-1.1l1.8.9c1.2 3.6 1.3 6.2 1 10-1.5 2.9-1.5 2.9-3 5-2.4-.2-2.4-.2-5-1-1.3-2.6-1.3-2.6-2-5-3.7 1.4-3.7 1.4-4.8 3.8-.2 2.2-.2 2.2 1.2 4.3l2 2.1 2 2.2 1.6 1.6-1 2a19 19 0 0 1-8-8c-1.1-6.9-.5-14.1 0-21m-137 44 3.4 2.8 1.9 1.6c2.3 2.1 3.6 3.7 3.9 6.9l-.4 8.7-.1 3.1-.1 2.9-.1 2.7c-.6 2.7-1.4 3.6-3.5 5.3l.2-2.3.7-10.3.3-3.6c.5-8.8.5-8.8-1.5-11.9-1.7-1.6-1.7-1.6-4.7-3.9zm-2 10c2.1 1.7 2.1 1.7 3 4-.1 3.1-.8 4.6-2.5 7.2A22 22 0 0 1 322 229l-2-1c-.5-4.8-.7-8 2-12.1 4.1-2.6 6.1-2.6 11-1.9m-25 3c3.4 1.7 4.6 4.8 6.4 8 1.6 2 1.6 2 3.8 2.8l1.8.2.1 2a35 35 0 0 0 15.9 25l2.3 2.9c2.6 3.3 5.6 5 9.1 7l1.6 1.1v2h2v2l2 .6 2.8.8 2.6.7q3.4 1.1 6.6 2.9v2l3.5.2 4.7.2 2.3.2c10.3.5 10.3.5 13.8 3 3.9 2 6.4 1.2 10.7.4-.6-3.4-1.7-5.5-4-8-3-1.2-5-1-8 0v2h-4l-1.2-2.9c-1.8-3.1-1.8-3.1-4-4.5-4.5-1-8.5-.9-13 .1q-8.2.5-15.8-2.7c-2.8-2.8-2.8-2.8-5-6l-4.1-3.6c-4.1-3.5-6.6-6.1-7.3-11.5.4-2.9.4-2.9 2.4-4.8l2-1.1 2 1-1.6 1.1c-1.4 1.9-1.4 1.9-1.5 4.6A38 38 0 0 0 354 263a52 52 0 0 0 26 1c2.5-1.4 4-2.9 6-5l3 1c.8 3.3 1.1 4.7 0 8l3.2.7c4 1.1 6 3.2 8.8 6.3 1.8 1.9 1.8 1.9 4 3 4.4-.6 8.3-1.8 12.6-3.1l3.7-1.1 3.6-1.1c2.9-.7 4.3-.8 7.1.3q-6 1.9-12 3v3c4.8 1.4 9.2.7 14 0-2.6 2.6-4.4 2.5-8.1 3.1-5.8.8-5.8.8-6.9 1.9h-7v2c-24.5.2-24.5.2-32.6-3.1q-6.8-2.2-13.8-3.7a34 34 0 0 1-9.6-5.2l-3.6-1.6A86 86 0 0 1 326 249l-1.7-2.1a66 66 0 0 1-8-13.3l-4.3-8.2-1.4-2.6c-1.6-1.8-1.6-1.8-4.3-2.1l-2.3.3v2l-2.4 1.2-3 1.7-3.1 1.6C293 229 293 229 292 231l-4.6 1.8a42 42 0 0 0-10.7 6c-2.7 1.9-5.7 2.9-8.7 4.2l-2.3 1.9a51 51 0 0 1-10.1 5.8 83 83 0 0 0-8.7 5.1L238 261l-2.4 1.5a59 59 0 0 1-6.6 3.4 32 32 0 0 0-6.5 4.2c-3.4 2.6-6.4 3.1-10.5 3.9v2a46 46 0 0 1-11.1 6.1q-4.5 2.4-8.6 5.4a71 71 0 0 1-8.6 4.6c-1.7.9-1.7.9-3.7 2.4a36 36 0 0 1-8.3 4.3c-1.7 1.2-1.7 1.2-2.3 2.8-.6 3.3-.5 6.6-.5 9.9v46.1l.1 43.3.1 39.6v35.6c0 9.3-.1 18.6-1.1 27.9-2.5-2.5-2.2-3.9-2.3-7.3V324.2c0-21.1 0-21.1 2.3-26.2 2.7-2.3 4.7-3.4 8.2-4l3.8-1 1-3 5.1-2.9q5-2.4 9.5-5.8c3.4-2.6 7.1-3.5 11.3-4.4 2.7-1.2 2.8-2.3 4.1-4.9 2.3-1.3 2.3-1.3 5-2.2l2.7-1.1c2.3-.7 2.3-.7 4.3-.7l1-3c2.5-1.6 2.5-1.6 5.8-3.2l3.5-1.9 1.8-.9 9-4.8 3.2-1.6c2.4-1.4 3.8-2.7 5.7-4.6l4.3-1.9c3.1-1.3 5.4-2.5 7.8-4.7 2.9-2.4 2.9-2.4 6.3-3.3 4.1-1.2 6.3-3 9.6-5.7 1.9-1.3 3.5-2.2 5.7-3 3.4-1.4 5.5-3.1 8.3-5.4q3-1.6 6.1-3c1.9-1 1.9-1 3.4-2.7 1.5-1.3 1.5-1.3 3.5-1.3"/><path fill="#fafafa" d="M338.3 138.2a28 28 0 0 1 9.7 3.8c1 2.2 1 2.2 1 4h3.2c3.8 1 3.8 1 5.3 2.8l2.3 4.4c1.2 1.8 1.2 1.8 4.2 2.8v2l3 1 3 5 2.6 2.5c2.6 2.8 3.3 3.8 3.4 7.5l-1.5 4.8c-.9 4-.9 8-1 12-.6 3.6-1.4 5.5-3.5 8.2l-7 3-2.3 2.7c-3.5 3-5.7 3-10.2 2.7a15 15 0 0 1-10.9-6.3l-2.4-4.1c-1.2-2-1.2-2-4-4.7-2.2-2.3-2.2-2.3-2.8-5 .6-2.3.6-2.3 3-3.7 2.6-1.6 2.6-1.6 3.3-4.3l.5-6.8c1-4 2.4-5 5.4-7.6 3.6-4.8 3.4-12.1 3.4-18-.7.3-.7.3-3.9 1q-1 .1-2.2.5c-1.9.6-1.9.6-3.9 2.6q-1.1 4.8-2 9.8c-1 3.2-1 3.2-3 5.7-2.5 3-2.8 5.4-3.3 9.3q-.1 1.8-.4 3.5l-.3 2.7c-3 1-4 .9-7 0q-.1-8.8 1.7-17.5l.4-2.7c1.2-6.2 3-10 7-14.8l1.5-3.8c1.8-4.2 3-5.3 7.7-5"/><path fill="#e39d4e" d="M216.1 382.9h25.4l14.6-.1h52.3c11.7 0 11.7 0 16.6 2.2 2.6 4.2 2.4 8.2 2.4 13l.1 2.5c.1 5.9.1 5.9-2.8 9-3.6 2-5.7 2-9.7 1.5-4-1.5-6.2-2.4-8.3-6.2L305 400l-.9-2a21 21 0 0 0-7.9-1.1H254c-1.9 0-1.9 0-2.9 1l-.7 6.2-.2 3.3q0 5.9 1 11.6 12 1 24.1 1h3.2l6.2-.2A33 33 0 0 1 301 423c1.6 2.4 1.6 2.4 2 5-.7 2.8-.7 2.8-2 5-2.8 1-5.4 1-8.4 1h-11.1l-9-.1-8.9-.1-2.7-.1c-6.2 0-6.2 0-9.5 1.6-1.8 2-1.9 3-1.7 5.9l.1 2.3.2 2.5.2 2.5c.4 6 .4 6 2.1 8.2 4 3 9.4 2.6 14.3 2.7h2.6l5.4.2 8.1.3h5.2q1.2.3 2.4.2c5 0 9-.3 13.7-2.1 1.8-2.7 1.8-2.7 3.2-6 2.3-5.7 2.3-5.7 4.7-7.3 4.4-1.4 7.8-1.3 12 .8 4.2 5 4.3 10.9 3.8 17.3-.3 3.5-.9 6.2-2.7 9.2-2.6 1.3-4.5 1.2-7.3 1.4h-3.4l-3.6.2h-3.9q-19.2.7-38.3.5l-8.7-.1-17.3-.2h-6.9l-9.9-.2h-3c-5.9-.1-9.2-.8-13.7-4.6.2-3.3.2-3.3 1-7 3.3-2.2 7-2.5 11-3.1 3-1.3 3.6-2.7 5-6q.5-5 .3-10.4v-28.6c0-5.6-.7-10.4-2.3-16l-2.5-.3c-8.7-2-8.7-2-12.4-5-1-2.6-1-2.6-.5-5.8 2-4 3.4-4 7.5-4m-5 4v4c3 2.2 4.7 2.6 8.3 3.2q4.8.6 9.6 1.9c1.1 11 1.2 21.9 1.2 33v17.9c0 4.5 0 8.2-2.2 12-4.3 3.7-9.7 4.2-15 5v5c3 1.7 6.2 1.4 9.6 1.5h2.4l8.1.2h2.8q24.3.6 48.6.6h21.2c6.3 0 11.6-.3 17.3-3.2.5-2.7.5-2.7.7-6.2l.3-3.5c0-4.3-.8-7-3.8-10.1-2.2-1.2-2.2-1.2-4.8-1.2-3.3 1.4-3.9 2.8-5.4 6l-1 3.7c-1 3.3-1 3.3-4 5.3-8.4 1.6-17.3 1.2-25.8 1.2h-3.9q-12.7 0-25.3-1.2v-2h-2v-28q11.3-1 22.7-1h2.2a276 276 0 0 0 15.8.2h4c3.3-.2 3.3-.2 6.3-2.2-1.4-3.1-2-4-5-6-1.9-.2-1.9-.2-4-.2h-8l-11.5.3H257l-2 .2c-2.5-.3-4-1-6-2.3-2-4.5-1.4-9.8-1.4-14.6V398l.3-2.1c3.2-2.1 4.1-2.2 8-2.2h37.6c9.7 0 9.7 0 14.4 2.2 1 2 1 2 1.5 4.5 1.2 4.3 1.2 4.3 4 6.7 2.7.9 3.8 1 6.5-.2 2.5-1.8 3-2.8 3.6-6l.2-3.4.3-3.4c-.2-4.7-.2-4.7-2-7.2-5.4-2.3-10.4-2.2-16-2.2h-90.2c-1.9.2-1.9.2-4.9 2.2"/><path fill="#d02951" d="M292 487.6c2 .4 2 .4 5.3-.2 2.7-.4 2.7-.4 5.1.4 1.6 2.2 1.6 2.2 1.4 6l-.8 5.2-.5 4q0 1.2-.2 2.2l-.5 4.4c-.6 5.1-.6 5.1-2.8 7.4-8 .4-8 .4-11-1-3.7-5-3.3-10-3-16l-3 1-.4 2.5-.5 3.3-.5 3.3c-.6 3-.6 3-2.6 5h-6c-5.8-.2-5.8-.2-8 1-25.5 3.6-25.5 3.6-33.2-1.6-2.7-3.8-2.3-7.2-2-11.8v-2.5l.2-6.2h2l.7-2.4c1.3-2.6 1.3-2.6 3.3-4 5-1 10-.9 14.2 1.7l1.8 1.7 2.5 1.2c3.3 2.4 4 5.1 5.5 8.8l3 1v-1.8c.4-4.2 1.1-6.5 4.5-9.4 9.2-5.7 15.2-5.8 25.4-3.2"/><path fill="#fafafa" d="M400 117c2.2 1 2.2 1 5 3l2 1.3c4.9 3.3 8.5 6.8 10 12.7-.8 3.1-.8 3.1-2 6-.3 6.4-.3 6.4 1 9 .2 3 .2 3 0 6-3.2 3.2-7.6 3.1-11.9 3.7-4.9.8-8 2.3-12.1 5.3-4.1 1.4-6.2.8-10-1-2.2-1.9-2.2-1.9-4.3-4l-2.1-2.1C374 155 374 155 374 153l-1.7-.6c-2.9-1.7-4.2-3.8-6-6.6-1.3-1.8-1.3-1.8-3.4-3.2-1.9-1.6-1.9-1.6-2.5-4l-.2-2.7-.2-2.7c0-2.2 0-2.2 1-3.2l6-.7a28 28 0 0 0 17-8.3l9-1.4c3-.6 3-.6 5.2-1.7z"/><path fill="#d02951" d="m332 396 3 1v2l2.5-.1 3.3-.1 3.3-.2c2.9.4 2.9.4 4.6 2.1 1.5 2.7 1.7 4.2 1.7 7.3v9.5l-.1 6.9v26.2c-.3 2.6-1 4.2-2.3 6.4l-2.3-.1h-3.1l-3-.1c-2.6.2-2.6.2-4.6 2.2h-3l-.6-2.2c-3.1-12.4-3.1-12.4-7-14.8a20 20 0 0 0-14.1-1.3c-4 2.3-5 6.3-6.4 10.5-.9 2.8-.9 2.8-2.9 4.8-1.9.3-1.9.3-4.2.3h-14.5l-9.4.1h-8.8c-6.4-.1-6.4-.1-9.7-1.7-2.4-2.9-1.8-6.3-1.6-9.9v-2.3l.2-5.5c3.1-1.6 6.4-1.1 9.8-1.1h22q6.6 0 13.2 1.1c3.4-.4 3.4-.4 6-1 1.4-9.7 1.4-9.7.1-14-5.4-5.2-12.3-5.4-19.3-5.3l-5.2-.1h-18.5c-2.3 0-2.3 0-6.1-.6a11 11 0 0 1-3.2-7.6l.3-2.6.2-2.6c.7-2.2.7-2.2 2.4-3.4 2.8-1 4.6-.8 7.5-.4q7.3.7 14.6.6l2-.1 8.3-.1 6.1-.2h3.7c3.7.5 4.8 1.4 7.1 4.4l3 6c4.3 4.3 11.2 4.2 16.9 4.6 3.3-.9 4.3-2.8 6.1-5.6.8-3.3.8-3.3 1.2-6.8l.5-3.5zm-39 5-1 1h-6.9l-4.3-.1-6.8-.1-6.5-.1h-4c-3.7.3-5.6.9-8.5 3.3-.4 3.6-.4 3.6 0 7 2 2 2 2 4.6 2.2h7l3.8-.1h3.7l7-.1h6.9l2.4-.1c8.7-.2 8.7-.2 12.6 2.1l1 2h2c.7 5.1 1.2 9.9.5 15.1l-.5 3.9c1 1 1 1 3.2 1l2.8-.1c5.9 0 11.7.4 17 3.1l2 5.9c2.3 5.6 2.3 5.6 5.4 7.6 6.2 2 6.2 2 9.8.7 1.8-1.2 1.8-1.2 2.8-3.2l.1-4.6.1-2.9v-29.8l.1-3.1-.1-2.9v-2.5c-.2-2.2-.2-2.2-2.2-5.2-8.1.3-8.1.3-11.6 2.9-1.4 2.1-1.4 2.1-1.4 5.1h2v7h-1q-5.1.7-10.2 1.7c-4.5.4-7.9-.4-12.2-1.6l-2.3-.6-5.3-1.5-1.4-6a10 10 0 0 0-4.6-6c-3.2-.8-3.2-.8-6-1"/><path fill="#fafafa" d="m457 131 3 1 1 5h-3v-2h-2l1 7 4 1 3-4 3 1v2.1l-.1 2.8v2.7c.1 2.4.1 2.4 1.1 4.4a39 39 0 0 1-4 22q-3.3 1-6.6 1.6l-3.6.8-2.8.6-2 7a20 20 0 0 1-10.6-6.3l-2.3-2.5-2.1-2.2-2.8-2.8c-6.4-6.5-6.4-6.5-7.2-11.2l.4-4.6q.8-6.7.4-13.4c.2-2 .2-2 2.2-4l5.4-1.6 2.9-.7 2.7-.7 2-.7c3.4-.5 6.3.5 9.6 1.3 2.5.4 4 .4 6.4-.6zm16 57.7a18 18 0 0 1 6 13.3q-.2 4-.8 8l-.2 2.1a36 36 0 0 1-8 17.7l-2.2 3C466 235 466 235 464 236l-6.4.3-3.5.2c-3-.5-3-.5-5.4-2.9L447 231l-2.5-2.5c-4.8-4.8-4.8-4.8-6.5-7.5.1-3.2.7-5.5 2-8.4a24 24 0 0 0 1.3-8.5c.5-6.7 2-11.6 7-16.3a20 20 0 0 1 24.6 1m-104.6 19.9c3.5.4 4.6 1.6 7.1 4l2.3 2.5 2.5 2.6 2.5 2.5c8.1 8.2 8.1 8.2 8.5 13v5.5l-.1 3v3l-.1 7.2-2.5.8c-9 2.8-9 2.8-12.3 5.5-2.2 1.7-2.2 1.7-5.6 1.7-3.7-1-6.5-1.8-9.6-4l-.9-3.5-1.1-3.5-7-3c-2.4-3.1-2.4-3.1-4-6l-1-1-.3-8.7v-2.5c0-4.6-.1-8.2 3.3-11.8 2.5-.2 2.5-.2 5.4.2 2.9 0 2.9 0 5.6-.2a17 17 0 0 0 3.8-5.4c1.2-1.6 1.2-1.6 3.5-2M430 227q4.4 3 8 7l2.3 2.2c4.2 4.3 6.2 7.5 6.1 13.7q-.2 4.6-1.4 9.1a21 21 0 0 1-8 3.9c-3 1.1-3 1.1-5.1 3.1-4.1 2.8-7.9 3.2-12.8 3.8l-2.7.4c-4.6.7-8.8 1.2-13.4-.2-4-3.1-6.6-6.6-7.9-11.5l-.1-2.5 2.4-1.5c2.9-2.8 3.3-4.5 3.6-8.4q0-4.6-1-9.1c2.9-2.4 4.9-3.4 8.6-3.9 4-.7 7.1-1.8 10.6-3.7 6.7-3.5 6.7-3.5 10.8-2.4"/><path fill="#d02951" d="M295.4 324.4q10.2.9 20.5.5 8.6-.1 17.1 1c2 .1 2 .1 5-.9l4.3-.2h12.5q3.2.3 6.2 1.2a71 71 0 0 0 22-1.7q7.9-1.3 15 2.7v-2h21.5l8 .1h2.4q7.4 0 14.8-.9c4.2-.4 8.5-.4 12.2 2 1.4 2.4 1.8 4 2.1 6.8l.2 2.3c.4 5 .2 8-3 11.7-2.2 2.3-3.2 3-6.2 4l-2 3c-2.5.3-2.5.3-5.5.3h-6.7q-1.6-.2-3.4-.2H424l-2-4q-6.4-.4-12.8-.4H402l-3.2-.2c-3.5.6-4.5 2-6.8 4.5-3.3.7-3.3.7-6 1v-2q-.9 0-1.8-.4c-2.6-.7-3.5-1.8-5.2-3.6l-3-1v1.8c-1 2.2-1 2.2-4.2 4a16 16 0 0 1-10.8.2c-1.5-2-1.5-2-2-4-3 0-5 0-8 1v2a24 24 0 0 1-14-1c-13.8-3.9-13.8-3.9-21 0-6.5-.5-6.5-.5-8-2-4.8-.6-7.2.6-11.2 3.1-4.5 2.2-9.2.8-13.8 0q-1 .3-2 1c-5.3.2-8.8.4-13-3-2.2-3-2.2-3-4-6l-2-3c-.6-5.2-.8-10.7 2-15 3.8-3 8.3-2.3 13-2.2 6.1.1 12.4-1.3 18.4-.5M286 328v2l-4 1-1-3c-3.2-1.6-6.6-1.3-10-1-3 1-3 1-4.8 3-1.7 4-1.3 7-.2 11 2 4.5 5 7.1 9 10h4v-2l2-1 1.6-4 .8-2c.6-2 .6-2 .6-4l2 2v2.8c0 3.2 0 3.2 1.1 5.5 2.6 2.3 4.4 2.7 8 2.7q1.8-2 4-4c2-.8 2-.8 4.4-1.5 3.8-1.2 5.6-2.6 8.5-5.5 2.1 0 2.1 0 4 1l.8 2c1.2 2 1.2 2 3.1 2.7l2.4.4 2.6.4 3.1.5 7 1 3.4.5c2.6.5 2.6.5 3.6 1.5 5.8.5 8.2-.8 13-4 2.8-.3 2.8-.3 5 0l.5 2c1.5 2 1.5 2 5 2.8l3.5.2c2-2 2-2 2.1-5.7V342c5.5 2 9.7 3.6 14 8 2.8 1 2.8 1 6 1l2-2c3.8-2.7 7-2.4 11.2-2.2 5.7.3 10.2 0 15.7-1.8l1.5 2.5c2.5 2.5 2.5 2.5 6 3 3.5-.5 3.5-.5 6.5-2.5.7-2.6.7-2.6 1.2-5.7l.4-3 .4-2.3h2v1.8c-.4 6.5-.4 6.5 1.2 9.7 2.3 2 3.7 2.2 6.8 2.5 2.6-1.4 2.6-1.4 5.2-3.3l2.7-1.9c3-2.7 3-4.6 3.3-8.7 0-3.8-.6-6.2-3.2-9-5-2.7-8.8-2.2-14-1q-1 .8-2 2c-4.6-.7-4.6-.7-6-2q-5.6-.5-11 .4c-3.6.6-6.5 0-10-.5-4.8-.3-7.7.2-12 2a13 13 0 0 1-5.8-2 15 15 0 0 0-9.2-1 29 29 0 0 0-13 10l-1-4 2-1-4-1-1 2-1-2-1.9.1-2.4.1-2.4.1c-2.9-.4-4-1.6-6.3-3.3a30 30 0 0 0-20.2 2.3l-2.8.7-2-1.5c-4.4-2.2-8.2-1.9-13-1.9h-2.6c-5 .1-8.8.7-13.4 2.4-2.2-1.4-2.2-1.4-4-3-3.8 0-5.7.5-9 2"/><path fill="#7b8381" d="M404 98v14h2v2h2l4 5 5 4 2.1 2.2c2.3 2.2 4 2.8 7.2 2.9l8.6-.2 3-.1c8.2-.2 8.2-.2 11.2-3.3l1.9-2.5 1-1c7 .2 7 .2 10.5 2.9l2.5 3.1 2 2.5c9.3 12.3 9.3 12.3 8.8 18.9l-.8 2.6a77 77 0 0 0-2.6 19.6l-.1 2.8c-.1 3.8-.1 6.5 2.2 9.7a29 29 0 0 0 3.8 3.4c2.2 1.9 3 3.8 3.7 6.5h2c2.3 4.1 3.4 6.6 2.2 11.2l-.5 2.4-.7 2.4-.6 2.2A61 61 0 0 1 469 240l-6.4 1.1c-7.2.9-7.2.9-10.6 1.9l-.8 7.1-.2 2c-.6 4.5-1.6 8.1-4 11.9-1.8 1.3-1.8 1.3-3.8 2.1a35 35 0 0 0-7 3.9 32 32 0 0 1-11 4.1l-4.2.9-2.1.5-7.6 2.4c-2.9.9-4.1 1.1-7.2.6-2.6-1.8-4.2-4-6.1-6.5-3.4-2.3-5.9-2.5-10-3l.6-3.4c.4-3.6.4-3.6-.6-5.6-4.7 1.7-4.7 1.7-6.2 3.5-4.6 3.9-14 2.5-19.8 2.5-9.8-.9-17.1-8.5-23.3-15.7a11 11 0 0 1-2.7-8.3c1.3-1.5 1.3-1.5 2.9-3 4.1-4.6 4.2-9 4.4-14.9l.3-2.9c.2-5.3-.2-8.4-3.8-12.5L336 205l-2.7-3.4-2.4-3-2.4-3.2c-2.9-2.8-4.5-3.2-8.5-3.4l-3.2.1c-2.8-.1-2.8-.1-4.8-2.1-1-9.9 1.9-20.7 5.3-29.9q1.1-3.4 1.6-6.8c.9-4.6 2.9-6.8 6.1-10.3l1.6-3.2c1.5-3.1 2.4-4.2 5.4-5.8 5.3-1.1 9.8-1 15.1-.3 1.9.3 1.9.3 3.9.3l-.5-2.1c-1.3-5.6-2.2-10.3.1-15.7 7.9-12.5 23.2-15.5 36.6-18.7a26 26 0 0 1 16.8.5m-24.5 3.9q-3.1 1-6.2 1.7A42 42 0 0 0 354 115c-2.6 4.3-2.1 8.5-1.6 13.3l.1 2.3.5 5.4q-6.3.3-12.7-.6c-3.8-.5-5.9 0-9.3 1.6-2.4 2-3.7 4-5 6.9q-1.5 3.3-3.5 6.4A36 36 0 0 0 319 161l-1 4.5-.5 2.3q-1.4 6.3-3.1 12.5c-.4 2.9-.2 4.9.6 7.7l1 1 3.9-.6c3.7-.1 4.9.4 7.7 2.8q5.6 6 10.2 12.7c2.2 3.1 2.2 3.1 5.1 4.8 2.1 2.3 2.1 2.3 2.2 4.7q-.2 3-.7 6.1-.8 7.5-.8 15.2c-.7 3.8-2 5.4-4.6 8.3-.3 2.8-.3 2.8 1 6q4.3 4.2 9 8l1.6 1.6c4.2 4 7.9 4.3 13.4 4.4l3.3.2c9.7.5 9.7.5 13.1-2.6l2.6-2.6c3.4-.8 3.4-.8 6-1l1.2 2.1A48 48 0 0 0 404 275c12.6.8 27.9-3.8 38-11l2.7-1.6c2.3-1.4 2.3-1.4 3.3-3.4l1.2-10.2c.6-5.6.6-5.6 2.8-7.8q5-1 10.1-1.6c3.6-.6 5.6-1.1 8.2-3.7l1.7-2.7 1.8-2.3A59 59 0 0 0 483 205l.5-2.8c.4-4.7-.8-7.1-3.6-10.9a73 73 0 0 0-7.3-7.4c-2.6-2.9-2.6-2.9-3-6.2l.4-3.7.2-2.1.8-6.9q1-9 1.2-17.9l.1-3.2c-.6-5.3-4-8.9-7.3-12.9l-1.8-2.7c-3-3.1-5-3.9-9.2-4.3q-2.1 1.8-4.1 3.8c-3.6 2.3-7.8 1.9-12 2.1-2.9.1-2.9.1-5.9 1.1-6.2.5-9.1.1-14-4l-7-7-2.7-2.7-2.3-2.3-2.2-1.7c-2.5-3.1-2.7-6.2-3.3-10.1-.5-2.2-.5-2.2-2.5-4.2-6.6-.8-12.2 1-18.5 2.9"/><path fill="#e39d4e" d="M343.9 382.6H360l10.4-.1h9.6c4.6 0 7.3.1 11.2 2.4 1.8 2.1 1.8 2.1 2 4.5l-.4 2.4-.4 2.4-.4 1.8-2.7.3-3.6.5-3.6.5c-3.1.7-3.1.7-5.1 3.7l-.7 7.5-.1 2.4a420 420 0 0 0 .5 36.7v2.1q.1 4.7 1.3 9.3 11.7 1.2 23.5 1.3h6.2l2.8.1c3-.5 4.4-1.3 6.5-3.4.9-2.7 1.2-4.3 1.2-7.1v-2.4l.2-5c.2-6 .2-6 2.5-8.5a16 16 0 0 1 12.9-.8c3.4 1.9 4 2.3 5.2 5.8q.7 6.6.8 13.4v3.7c.2.6.2.6.3 3.6v3.2c-.1 3.4-.8 6-2.1 9.1-3.1 1.6-6.4 1.4-9.8 1.6l-2.6.1q-21 .7-42 .5h-33.5l-3.7.1c-3.5-.3-6.2-1-9.4-2.3-2-2.4-2-3.5-1.8-6.6 1.3-3.9 1.3-3.9 3.8-5.4q3-.2 6 0c2 0 2 0 5-1 1-2.9 1.2-4.8 1.3-7.8v-6.1l.2-3.3v-6.9l.4-10.6v-6.7q.3-1.6.2-3.1A46 46 0 0 0 350 398a14 14 0 0 0-6.3-1.3c-3.2-.3-4.5-.6-7.2-2.4-2-3-2.1-4.8-1.5-8.3 2.9-2.8 5-3.4 8.9-3.4m-5 2.4c-2 4.7-2 4.7-1.1 7.3 2.7 2 3.5 1.8 6.7 1.7 4.2-.1 4.2-.1 7 1.4 3.9 6.7 2.7 16.4 2.7 23.9v29.1c0 10.4 0 10.4-3.2 13.6l-9.3.7c-2.7.3-2.7.3-3.7 1.3-.2 2.4-.2 2.4 0 5 2.6 2.6 4.4 2.3 8 2.3h32.8l16.3.1h29.6c4.5 0 7.6-.4 11.3-3.4.6-2.4.6-2.4.6-5.3v-3.1l-.1-3.3-.1-3.3c0-5.6-.2-10.7-2.4-16-3-2-3-2-6-1.7-3 .7-3 .7-5 2.7-.4 2-.4 2-.5 4.4l-.3 2.7-.3 5.9-.2 2.9-.1 2.8c-.6 2.3-.6 2.3-2.1 4.1-6.5 3.2-14.8 2.4-22 2.3h-2.7c-14.8 0-14.8 0-19.8-2.8-5.5-9.2-3.1-25-3.1-35.6v-16.2c0-8.1 0-8.1 1-11.5 4.2-2.7 7.6-2.4 12.4-2.7 2.7-.3 2.7-.3 4.7-2.3.3-2.5.3-2.5 0-5-3.2-2.1-4-2.2-7.7-2.2H373l-10.2.1h-7zm180.4-1.2 3.2-.2h5.8c5 .8 8.1 3.4 11.1 7.3q4.8 6.7 8.1 14.2a157 157 0 0 0 8 14l4 7.1 7.5 13 1.5 2.7 2.8 4.8 2.5 4.4 3.1 5.3c2.6 3.3 4.2 3.6 8.2 4.2 5.5.8 5.5.8 7.8 3.8 1.3 3.2 1.3 4.5.1 7.6-3 2-3.9 2.3-7.5 2.3h-33.8c-5.7 0-9.7-.7-14.7-3.4-.4-6.3-.4-6.3 1.2-8.6 2.4-1.7 4-1.7 7-1.4h4.8a12 12 0 0 0-.6-10c-2-3.5-3.7-5.3-7.4-7-5-1-9.7-1-14.7-1l-2.5.2h-5.2l-8 .1-5 .2h-2.4c-5 .2-7.6.9-11.2 4.6-2 3-2.3 3.8-2 7.1v3.8l2.1 1 2.8 1 2.7 1c2.4 1 2.4 1 4.4 3 .4 3 .4 3 0 6-4.5 4-9.5 3.6-15.2 3.5h-27.5c-8.6-.1-8.6-.1-12.3-2.4-1.6-2.9-1.6-2.9-2-6 1.2-2.9 1.2-2.9 4-5q3.7-.6 7.5-.6c5-.8 7.4-5.3 10-9.2A55 55 0 0 0 474 439l3.7-6q1.9-3 3.4-6.1 2.6-5 6-10l3-6c1-2 1-2 2.4-3.8 1.5-2 2.2-3.9 3.2-6.2 5.4-12.7 10.2-17 23.6-17.1m-14.3 5.1c-1.3 3.8-1.3 3.8-2 7h-2l-1.8 3.7c-4.8 9.6-4.8 9.6-7.8 13.3-1.4 2-2 3.8-2.9 6a26 26 0 0 1-5.5 9l-2.5 5a37 37 0 0 1-4.6 7.7c-1.9 2.3-2.6 4.3-3.7 7.1A34 34 0 0 1 462 462c-3 1-3 1-6.5.9s-3.5 0-5.4 1.7q-.6.5-1 1.3c.5 2.6.5 2.6 2 5 4.6 1.4 9.1 1 14 .7q15.8-.9 32-.7l2-4c-2.9-4.1-5.9-4-10.7-5l-2.4-1c-1.3-3.8-.3-5.2 1.4-9 2.6-5.7 2.6-5.7 2.6-8h2v-2a45 45 0 0 1 9.7-1h2.7l3-.1h9.3q5 0 9.7-.2h9.2c5 0 8.4.1 12.4 3.3 3.6 3.8 5 7 6 12-.3 3.6-.6 4.7-3 7-2.4.6-2.4.6-5 .8l-2.9.2h-2l-2 5c5.6 3 10.2 3.6 16.7 3.5h25.6l2.5-.1h2.2c2-.4 2-.4 5-2.4q-.6-2.7-1-6-3-.3-6-1l-3.3-.4c-2.8-.6-2.8-.6-4.8-.6l-.8-1.6-4-7q-8-13.5-15.2-27.4h-2l-.4-1.6c-1-3.7-3-6.7-4.8-9.9l-2.5-4.2-1.2-2.2-4.4-8c-5.9-11-5.9-11-9.8-13.1-4.2-1.2-8-1.2-12.5-1.2h-2.6c-7.9 0-7.9 0-10.8 3.3"/><path fill="#d65b4f" d="M432 558q1.8 3 3 6.2c1 1.8 1 1.8 3.4 2.7l2.6.1 3.3.6 2.7.4c1.6 3.9.4 7.2-1 11l-2.1 4.3c-2 4.3-2.2 7.8-1.8 12.5-.1 2.2-.1 2.2-2.1 5.2-7 .8-7 .8-10.7-2.1L427 597c-3.3.1-5.4 1.2-8.4 2.6-3.9 1.5-5.7 1.7-9.6.4-2.4-3.6-2-4.4-1.3-8.6.6-5.9-.5-9.2-3.6-14.1a11 11 0 0 1-1.1-7.3c2.6-2.6 4.8-2.8 8.3-3.8 5.9-1.7 8.4-3.1 11.7-8.2 3.3-1.7 5.5-1 9 0m42-1c6.1.1 8.5 2.1 12.9 6.2a31 31 0 0 0 9.1 5c2 .8 2 .8 5 2.8-.8 5.3-3.2 9.4-5.8 14.1-1.3 3.3-1.2 4.6-.2 7.9l1 5c-2.3 2.1-3.7 3-6.9 3.4-3.8-.5-5.9-2.2-9.1-4.4-2.6-.5-2.6-.5-5 0l-2.4 2c-2.6 2-2.6 2-5.8 2.4l-2.8-.4c-2.9-4.3-2.4-8.4-2.6-13.5-.6-5-2.6-8.4-5.4-12.5v-7c2.7-1.4 5.1-.9 8-.7 2.6-.4 3.3-1.3 5-3.3l2.7-3.7 1.3-1.9zm-160 0c3.3 0 3.3 0 7 1l3.3 4.4c3.1 2.9 7.1 3.6 11.1 4.7 2.6.9 2.6.9 4.6 2.9-.2 6-1.6 12.6-6 17a13 13 0 0 0 2 9c-1.6 2.5-2.5 3.8-5.3 4.9-4.6.2-7.9-1.4-11.7-3.9-2.9.2-4.4.4-6.5 2.5s-3.5 2.4-6.5 2.5c-2.1-1.6-2.1-1.6-4-4-.5-3.2-.5-3.2-.5-6.8-.3-7.1-1.4-11.1-6.5-16.2.6-6.6.6-6.6 2-8l8.5-.6 2.5-.4 1-2h2l.4-2.4c.6-2.6.6-2.6 2.6-4.6m59.5-.4c3.1 1.7 3.9 3.3 5.5 6.4l2 3c2 .3 2 .3 4.4.4 3.2.3 4.4.5 7.2 2.3 1.9 3.1 2 4.7 1.4 8.3a53 53 0 0 1-5.6 7.8c-1.9 3-1.6 5-1.4 8.3.2 3.2.2 3.2 0 6-3.5 2.2-4.9 2.4-9 2l-4-4c-2.5-.6-2.5-.6-5 0l-4 3c-4.1 1.2-6.1.5-10-1l.4-2.8c1.1-10.5 1.1-10.5-1.2-13.9L352 580c-2.5-3.7-2.3-5.7-2-10 2-3 2-3 3.7-3.7 2.3-.3 2.3-.3 5.4-.3 2.9 0 2.9 0 5.9-2l1.5-3.6 1.5-3.4c3-1 3-1 5.5-.4"/><path fill="#4a242e" d="M167 504h1l.5 9.8.2 3.1q.3 10.3.2 20.6v2.4l-.2 12.2-.1 4.5v2.1c0 3.3.2 5 2.2 7.6a110 110 0 0 0 10.6 7.3 43 43 0 0 0 6 2.8c3.3 1.5 5.8 3.1 8.8 5.3q3.8 2.6 8 4.4 3 1.7 5.8 3.9l3.8 1.9q5.3 2.6 10.3 5.9c1.9 1.2 1.9 1.2 4.9 2.7q4.7 2.4 9.1 5.3c1.9 1.2 1.9 1.2 5.1 2.8a18 18 0 0 1 5.1 3.3c2.8 2.2 5.5 3.6 8.7 5.2q5.6 2.6 11 5.9l3 1.4c3 1.6 3 1.6 5.2 3.5 3.3 2.5 6.7 4.1 10.4 5.9q3.4 1.8 6.4 4.2l5 2.5q4.8 2.3 9 5.5l4.8 2.4q5.8 2.9 11.4 6.5c1.8 1.1 1.8 1.1 5.1 2.7 2.7 1.4 2.7 1.4 4.1 2.9 1.8 1.7 3.3 2.4 5.7 3.3q10.2 4.7 19.4 11.3a103 103 0 0 0 12.2 6.8q11.3 5.7 21.9 12.8c3.4 1.9 5.6 1.8 9.4 1.3q5.9-2.1 10.5-6.1c2.8-2.1 5.3-3 8.6-4.1 1.9-.8 1.9-.8 4.3-2.8 3.6-2.7 7.3-3.8 11.6-5v-2l2.6-1.4c10.5-5.5 10.5-5.5 14.2-8.3 3.3-2.3 6.4-3.8 10.1-5.3 2.7-1.3 4.8-3.1 7.1-5l7-3 2.3-1.9c3.2-2.5 6.5-4.1 10.1-5.8q4.5-2.3 8.8-5.1 9-5.7 18.6-10.4 4.8-2.7 9.2-5.8l3.9-1.9a96 96 0 0 0 9.8-5.7l8.7-5.3 3.1-1.8 2.5-1.3 2 1a40 40 0 0 1-15.7 10c-2.2 1-3.6 1.9-5.4 3.6a18 18 0 0 1-6.9 3.9c-4.1 1.4-6.7 3.7-10 6.5l-7 3-3.5 2.5a29 29 0 0 1-7.1 4c-3.2 1.4-5.1 3-7.7 5.3-2.6 1.9-5.5 2.5-8.5 3.4-2.2.8-2.2.8-5.3 3.4a13 13 0 0 1-7.1 3.5l-3.8.9-1 1.9c-1.3 2.7-2.5 3-5.2 4a23 23 0 0 0-7.7 4.6 34 34 0 0 1-10.9 5.5c-2.7 1.2-4.1 2.9-6.2 5q-3.3 1.6-6.7 2.9a44 44 0 0 0-7.7 5 15 15 0 0 1-9.6 3.1l-.7 1.9c-2.2 3.5-5.5 4.1-9.3 5.4-5.8 1.4-10.1.8-15.2-2.1L385 694c-3-2.1-5.5-3.8-9-4.9a20 20 0 0 1-7.3-4.8c-2.6-2-5.5-3-8.5-4.3q-4-2-7.5-4.8-2.6-1.7-5.4-2.8c-3.3-1.4-3.3-1.4-5.2-3.4a12 12 0 0 0-6.5-3.4c-4.4-1.4-7-3.6-10.6-6.6l-6.9-3a18 18 0 0 1-5.1-4l-4.7-2.4q-6-2.9-11.6-6.6c-1.7-1-1.7-1-4.2-1.9a25 25 0 0 1-6.4-4.1c-2.6-2-4.2-3-7.3-4.1-2.8-.9-2.8-.9-5.1-3.3-3.1-3-5.5-3.6-9.5-4.8-3.3-1.2-5.5-3.5-8.2-5.8l-6.9-3q-3.8-2-7.1-5l-4.5-2a41 41 0 0 1-9.5-6l-7.6-3.8q-4.3-2.4-8.4-5.2l-7-3v-2l-2.1-.8-2.9-1.2-3.5-1.4a30 30 0 0 1-8.5-5.6v-2l-3-.1c-4.3-.6-6.8-2.7-10.1-5.4-1.9-1.5-1.9-1.5-5.3-3.5-2.6-2-2.6-2-3.3-4.8a89 89 0 0 1-.4-9v-48c.1-2.2.1-2.2 1.1-3.2"/><path fill="#d65f4e" d="M475.8 326.5h3.4l3.6.1 3.5-.1c6.6.1 11.7.7 17.7 3.5v-2l9.7-.7 2.8-.2c3.9-.3 6.9-.3 10.6 1 1.9 1.9 1.9 1.9 2.6 4.9l-.1 3.4.1 3.4c-.9 4.2-2.1 5.7-5.7 8.2q-4.2.6-8.4-.1l-2.3-.3c-3.8-.6-5.8-1.2-8.7-3.7a65 65 0 0 1-3.6-6.9l-2-1-.9 2.4-1.3 3-1.2 3.1c-1.6 2.5-1.6 2.5-4.1 3.4-2.5.1-2.5.1-4.8-1.2-2.7-.7-2.7-.7-4.6.3l-4.2 2.8c-1.9 1.2-1.9 1.2-4.6 1.8-3.4-.9-4.5-2.6-6.3-5.6l1-4-1.5-2.9c-1.5-3.1-1.5-3.1-1.4-5.7 2.1-5.4 5.1-6.9 10.7-6.9"/><path fill="#4a242e" d="M333 214c2.1 1.7 2.1 1.7 3 4-.1 3.1-.8 4.6-2.5 7.2A22 22 0 0 1 322 229l-2-1c-.5-4.8-.7-8 2-12.1 4.1-2.6 6.1-2.6 11-1.9m-25 3c3.4 1.7 4.6 4.8 6.4 8 1.6 2 1.6 2 5.6 3l1 11c-3-3-5-6-7.1-9.6l-1.1-1.7q-2-3.3-3.8-6.7h-5v2l-2.4 1.2-3 1.7-3.1 1.6C293 229 293 229 292 231l-4.6 1.8a42 42 0 0 0-10.7 6c-2.7 1.9-5.7 2.9-8.7 4.2l-2.3 1.9a51 51 0 0 1-10.1 5.8 83 83 0 0 0-8.7 5.1L238 261l-2.4 1.5a59 59 0 0 1-6.6 3.4 32 32 0 0 0-6.5 4.2c-3.4 2.6-6.4 3.1-10.5 3.9v2a46 46 0 0 1-11.1 6.1q-4.5 2.4-8.6 5.4a71 71 0 0 1-8.6 4.6c-1.7.9-1.7.9-3.7 2.4a36 36 0 0 1-8.3 4.3c-1.7 1.2-1.7 1.2-2.3 2.8-.6 3.3-.5 6.6-.5 9.9v46.1l.1 43.3.1 39.6v35.6c0 9.3-.1 18.6-1.1 27.9-2.5-2.5-2.2-3.9-2.3-7.3V324.2c0-21.1 0-21.1 2.3-26.2 2.7-2.3 4.7-3.4 8.2-4l3.8-1 1-3 5.1-2.9q5-2.4 9.5-5.8c3.4-2.6 7.1-3.5 11.3-4.4 2.7-1.2 2.8-2.3 4.1-4.9 2.3-1.3 2.3-1.3 5-2.2l2.7-1.1c2.3-.7 2.3-.7 4.3-.7l1-3c2.5-1.6 2.5-1.6 5.8-3.2l3.5-1.9 1.8-.9 9-4.8 3.2-1.6c2.4-1.4 3.8-2.7 5.7-4.6l4.3-1.9c3.1-1.3 5.4-2.5 7.8-4.7 2.9-2.4 2.9-2.4 6.3-3.3 4.1-1.2 6.3-3 9.6-5.7 1.9-1.3 3.5-2.2 5.7-3 3.4-1.4 5.5-3.1 8.3-5.4q3-1.6 6.1-3c1.9-1 1.9-1 3.4-2.7 1.5-1.3 1.5-1.3 3.5-1.3"/><path fill="#a2a2a2" d="M398 99c2.4 2.4 2.3 3.3 2.7 6.6 2 10.8 13 18.1 21.3 24.4 3.7 1.9 8.4 1.3 12.4.5a54 54 0 0 1 8-.7c3.9-.3 6.1-.7 8.8-3.5l2.8-2.3c4.1.4 6.2 1.1 9.1 4.2l1.9 2.8 4.7 5.4c5 6.4 2.3 18.4 1.9 26.2l-.2 2q-.2 4.9-1.4 9.4c-.6 3.2-.6 3.2 0 7q3.2 3.7 6.7 6.9c4 3.7 6.1 6.4 6.8 11.9A57 57 0 0 1 468 238l-10.2 1.9c-5.6.9-5.6.9-7.8 3.1l-1.1 10.1c-.4 4.1-1 6.8-3.9 9.9l-3-1 1.9-1.4c3-3.7 3-7.2 3.3-11.8l.3-2.6.5-6.2c4.2-1.6 7.9-2.2 12.4-2.4 4-.6 6.1-1.1 9.1-3.9a56 56 0 0 0 10.9-35.4c-1.1-5.9-5.7-9.8-10.2-13.4a11 11 0 0 1-4.3-6c.1-2.9.1-2.9 1.1-5.2 2-5.3 1.9-11.1 2.2-16.7l.4-3.9.2-3.7.3-3.3c-.2-5.7-2.2-8.3-6.1-12.1l-1.3-2.7c-1.7-2.3-1.7-2.3-5.4-3.1l-3.3-.2-2 3c-2.9.9-5.2 1-8.2.9-3.1.1-5.4.4-8.3 1.1-5.2 1.2-9.5 2-14.4-.5a90 90 0 0 1-9-8.4 144 144 0 0 0-8.3-7.5c-3.5-3.2-5.1-5.6-5.5-10.4l-.2-2.4-.1-1.8c-15.7 1-29.9 3.3-42 14-2.4 4.8-1 11 0 16v8c-3.4 1.2-5.2.8-8.6-.4A41 41 0 0 0 331 138l1-2a27 27 0 0 1 12 0h9l-.3-3.3-.4-4.3-.2-2.2c-.4-4.9.1-8 2.9-12.2 7.5-7.8 16.9-10.1 27-12.5q2.7-.7 5.3-1.6c3.8-1.3 6.7-1.2 10.7-.9m-69 40 1 2-2 2zm-2 4 1 3-2.2 3.2c-3.7 5.5-4.6 11.7-5.8 18.1l-1.2 6.3c-2 10.1-2 10.1-.8 12.4l3.5-.6c3.2 0 4.2.4 6.6 2.6q3.1 4 5.9 8l3 3.6 2 2.4-1 2-4.8-5.2-1.4-1.5q-3-3.1-5.3-6.7c-1.5-1.6-1.5-1.6-3.7-1.9l-2.4.2c-2.3.2-2.3.2-4.4.1l-2-2q.6-7.2 2.3-14.2.9-3.4 1.5-6.8a55 55 0 0 1 9.2-23m12 61a37 37 0 0 1 8 5c1.6 5.7 1.6 5.7 0 9l-.5 4.9-.2 2.9-.5 6.1-.2 3-.2 2.7c-.4 2.5-1.2 4.2-2.4 6.4.2 3.2.7 4.6 2.7 7.1 2.3 1.9 2.3 1.9 5.3 3.4s3 1.5 4.7 3.5c3.3 2.8 6.5 2.8 10.7 3l2.2.2c5.4.3 8.1-.8 12.4-4.2 3.7-2.5 5.6-2.5 10-2a13 13 0 0 1 3.4 7.7l.6 2.3c1.9 1.1 1.9 1.1 4 2 1.2 2.1 1.2 2.1 2 4-5.2-3.2-7.8-5.6-10-11.3-1-1.7-1-1.7-3-2.5-3-.3-4.5 1.1-7 2.8l-1.8 1.6c-4.4 2.8-10.1 1.6-15.2 1.4h-2.6c-6.2-.3-9.1-2.7-13.4-7l-4.4-3.5a14 14 0 0 1-4.8-6.6c.2-2.9.2-2.9 2.1-4.9 3-4.3 3-8.3 3.3-13.4l.3-2.9.5-7.7.2-3.5c-.2-2.5-.2-2.5-1.5-4.1l-1.7-1.2-3-2.2zm103 60c-6 4-10.7 6.7-18 7l1.7-.8 5-2.7 2.9-1.7 2.8-1.7c2.6-1.1 2.6-1.1 5.6-.1m-41 7 3 1q4.8.4 9.4-.5 5.3-.9 10.6-.5v1l-6.6 1.5-3.8.8c-8.3 1.5-8.3 1.5-12.6-1.3z"/><path fill="#7b8381" d="M417.6 157.7c2.4.3 2.4.3 4.1 2.2l1.4 2.5c2 3.2 2.7 4.5 6 6.6v2h2l5 5.8 3.7 4c4.2 4.3 4.2 4.3 4.2 8.7l-1 3.5-1 3.9q-.1 1-.5 2l-1.5 6.6q-.9 4.5-2.6 8.6A41 41 0 0 0 435 225l-2.4.3c-7.3.9-13.5 2.7-20.3 5.5-5.3 2-10.8 3-16.3 4.2q-3-3.6-5.5-7.5c-1.8-3-3.8-4.4-6.5-6.5q-5.4-5.3-10.4-11.1c-1.6-2-1.6-2-3.3-3.5L369 205c.1-2.5 1-4 2.4-6 2.2-4.1 2.8-8.2 3.6-12.7q1.7-10 5-19.3l2.2-.2a69 69 0 0 0 18.8-5.6 67 67 0 0 1 16.6-3.5m-12.7 6.7a45 45 0 0 1-15.3 4c-3.2.7-4.4 1.2-6.6 3.6a75 75 0 0 0-3 9l-.9 2.6c-5 17-5 17-3 23.4q2.1 2.8 5 5.2a78 78 0 0 1 5.5 5.9A56 56 0 0 0 398 229c5.3.2 10-1.2 14.7-3.2 3.7-1.3 7.6-1.6 11.4-2.1a16 16 0 0 0 8-4.7c1-2.8 1-2.8 1.4-6q1.3-6.6 3.6-12.7c3.7-10 3.7-10 3-14.3-2-2.8-4.5-4.8-7-7l-2.6-3q-4.9-5.4-10.5-10l-2.7-2.4c-4.5-3-7.9-1.5-12.4.8"/><path fill="#d65b4f" d="m341 494 5.8.4 3.2.2c2.8.4 4.5 1.1 7 2.4h7l3.3.6c2.7.4 2.7.4 4.7-.6l-2-2c5.5-.9 8.7-1.1 14 1l2.8.4c2.2.6 2.2.6 3.5 2.2 1 3.5.8 6.7.7 10.4a57 57 0 0 1-20 3l-1 1c-6.2.5-6.2.5-9.4-1.3-1.6-1.7-1.6-1.7-2.6-4.7-2.1-.7-2.1-.7-4-1v2c-2.1 2.2-2.1 2.2-5 4-3.6-.2-3.6-.2-7-1l-2.4-.6-1.6-.4v2l-4.4-.9-2.4-.5c-2.2-.6-2.2-.6-4.2-2.6.4-4 1.3-7.4 3-11l2-1 3 1 2-2 3 2h-2l1 7c2.3-2.7 3.9-4.6 5-8h-3z"/><path fill="#4a242e" d="M480 189c3.8 1.5 5.8 3.6 8 7 2.1 7.3-.6 12.8-3.5 19.4q-1.7 4.2-2.8 8.6c-1.5 5.1-4 8.3-7.7 12l-1-2 1.1-1.4c5.4-7.3 7.6-15 9.9-23.6l.8-2.8c1.4-5.2 1.1-8.3-.8-13.2h-2zm18 33c2.9 1.4 2.9 1.4 5 3v2c4.6 1.9 4.6 1.9 6.9 2.6 3.6 1.2 5.8 2.1 8.5 4.8 3.6 3.6 7.8 4.9 12.6 6.6v2l2 .8q9 3.8 17.1 9c1.9 1.2 1.9 1.2 5.1 2.8a18 18 0 0 1 5.1 3.3c3.1 2.4 6.1 3.6 9.6 5.1 2.7 1.3 4.8 3.1 7.1 5l4.5 2c3.7 1.6 6.3 3.5 9.5 6l4.5 1.9c4.5 1.9 6.7 4.1 9.5 8.1-2.7-.4-4-1-6.2-2.8a29 29 0 0 0-7.2-4.1 47 47 0 0 1-9.9-5.9q-2.6-1.7-5.5-2.8c-3.2-1.4-3.2-1.4-4.5-2.8-2.3-2.1-4.7-3.2-7.5-4.5a195 195 0 0 1-15.5-8.5 224 224 0 0 0-13.5-7.7q-5.7-3.1-11.2-6.9l-2.9-1.4-7-4a66 66 0 0 0-8.2-4.6 26 26 0 0 1-7.1-4.8c-2.8-2.2-2.8-2.2-5.3-2.1-3.2 1.1-4.1 2.4-5.9 5.3l-1.8 2.7q-2.5 4.2-4.8 8.5a69 69 0 0 1-18 21.4l-2.4 2a79 79 0 0 1-14.5 9.8 56 56 0 0 0-5.9 4A28 28 0 0 1 423 281c-2.4-1-2.4-1-4-2l1-3q3.9-1.9 8.2-2.7c4.4-1.2 7.8-3.9 11.4-6.6 2.4-1.7 2.4-1.7 5.1-2.6 2.3-1.1 2.3-1.1 3.6-3.3q1.5-6.3 2-12.8c.7-3.2 1.1-4.2 3.7-6 2.3-.7 2.3-.7 4.8-1.1A34 34 0 0 0 473 236c-.8 2.4-.8 2.4-2 5-3.8 1.3-7.4 1.4-11.4 1.6-2.6.4-2.6.4-5.6 2.4-.6 2.6-.6 2.6-1 5.7-1.4 9.2-1.4 9.2-4 13.3a67 67 0 0 1-7 3.7c-2 1.3-2 1.3-2.8 3.9l-.2 2.4c8.7-2.9 18.6-7.8 23.2-16.2l.8-1.8-5-1-1-3c1.8-.6 1.8-.6 4-1l3 2c2.4.4 2.4.4 5 0 6.1-5.3 9.7-12.9 13.3-19.9 7.1-13.1 7.1-13.1 15.7-11.1"/><path fill="#d65b4f" d="M447 495c2.5 2.2 4.1 4.2 6 7 2.6.2 2.6.2 5 0v2l2-2v-2h4v2h8l1-3 2.9-.3c3.2-.4 5.8-1.3 8.7-2.5 4-1.3 4-1.3 7.3-.1 2.1 1.9 2.9 3.4 4.1 5.9l4 2 2 3 2-1 1 3-2 2h-3v-3l-1.2 1.4c-2.1 1.9-3.2 2.1-5.9 2.4l-2.4.3-2.6.2-2.6.3c-5.3.4-10 .3-15.2-1.1q-5-1-10.1-.5l-3 2c-3.2-.3-5.9-.9-8.9-2.1-3-.9-4.3-.9-7.3-.3l-3.8.4c-1.7-1.5-1.7-1.5-3-3l.8-1.6q2.4-4.6 4.3-9.3c1.7-4 4.3-3.2 7.9-2.1m23 4 2 1Z"/><path fill="#d02951" d="M314.8 553.7c4.3 0 6.1 1.2 9.1 4.3l2 2.6c2.9 3.3 6 3.6 10 4.4l3.8 1c3 .9 5.3 1.4 8.3 1l2-2c4.4-1.5 7.6-.4 12 1v1l-3.4-.1c-3.7 0-3.7 0-6.7 1-1.5 3.3-1.2 5.5-1 9 1.5 2.3 1.5 2.3 3.2 4.5 2.4 3.4 3.3 5.3 2.8 9.4q-.3 2.1-1 4.2 0 1.1-.4 2.3l-.6 1.7c5.6 1.2 8.4 1 13-2q.7-.4 1-1h5c.5.7.5.7 2 4h6.2c1.8 0 1.8 0 3.8-1v-9.2c0-2.8 0-2.8 2-4.8q.7 8 1 16c-7.7 2.6-7.7 2.6-12 2-2.7-2.5-2.7-2.5-5-5-3 1-3 1-4.2 3-1.7 2-1.7 2-4.2 2.5h-3l-2.9-.1c-3-.4-4.4-1.2-6.7-3.4-.3-2.5-.3-2.5 0-5l3-3c1.2-2.2 1.2-2.2 1-5a41 41 0 0 0-4.3-5 23 23 0 0 1-4-9.2c-.7-1.8-.7-1.8-2.7-2.8l-.2 1.7q-1 3.5-2.6 6.8l-1 2.3c-1.2 2.2-1.2 2.2-3 5l-1.2 2.2 2 4c1.3 3.3 1.2 5.7 0 9-4.5 3-9.4 2.8-15 2a14 14 0 0 1-5-5c-3 1-3 1-5 4-2 .6-2 .6-4.3.8q-1.3 0-2.5.3c-2.2-.1-2.2-.1-5.2-2.1q-.3-4.8-.3-10c-.2-5-1.2-8-4.7-12l-1.6-1.4c-2-2.4-1.7-4.7-1.7-7.7.3-2 .3-2 2.3-5h6c3.4.2 3.4.2 6 0 2.4-2.2 2.4-2.8 2.7-6 .5-4.8.5-4.8 5.1-5.2m-.9 3.3c-3 3.6-3 3.6-3 7h-2q-.3 1-1 2-4 .5-8.3.6l-2.7.4c-2.1 3.3-2.5 4.2-2 8l5 6c1.6 4.5 1.4 9 1.6 13.7.6 3.8 1.6 5 4.4 7.3 5.8-1.6 5.8-1.6 7.7-3.7l1.3-1.3c3.6.3 5.2 1 8 3 4 1 6.3 1.4 10-.2 2-1.8 2-1.8 3-4.8q-.8-1.5-2-3c-.6-4.8 1.5-7.1 4-11 1.7-3.7 2.9-7 2-11a23 23 0 0 0-9.3-4.3c-3.5-1-5.2-2-7.2-4.8-2.4-3-2.4-3-6.2-3.8zm53-2h10c2 4 2 4 1.8 6.3l-.7 1.7-1.2-2.4c-1.9-2.6-1.9-2.6-3.9-3.5-2-.1-2-.1-5 .9q-.8 1.5-2 3-.3-1-1-2 1.2-2 2-4m12 8 3 2 5.6-.2c5.1-.1 5.1-.1 8.3 2.2 2 4.8 1 8.6-.6 13.4-1.6 2.2-3.6 2.8-6.2 3.6l2-3.1c2-3.4 2.6-6 2-10-1.6-2-2.4-2.8-5.1-3.3l-4.8-.1c-2.2-.5-2.2-.5-3.4-2.5zm-16 1 2 1h-3q.7-.4 1-1"/><path fill="#cc1d51" d="M264.2 437.8h2.2l4.7-.1 7-.1A42 42 0 0 1 301 442c2 2 2 2 2 5.7v3.3c-5.8 4.2-5.8 4.2-9 3.8l-4-1.2c-3.4-1-6.5-.2-10 .4v-2l-2.2.5a64 64 0 0 1-21.8.5c-.8-3.4-1-6.2-.6-9.7l.3-2.4c.8-4.3 4.9-3.1 8.5-3.1"/><path fill="#d02951" d="M472 324.5h53.3c2.7.5 2.7.5 4.6 2.4 1.9 3.6 1.6 7 1.6 11v2.5c0 3.9-.2 6.2-2.2 9.7-2.6 2.2-3.6 2.5-7 2.3l-2.7-.1-2.6-.3-2.3-.2c-6.8-.6-6.8-.6-9.7-2.8l-4-6-2-1-2 10c-4.4 1-7 1-11-1v-2l-2.3 2c-4.3 3.3-8.4 3.4-13.7 3-3.5-1-3.5-1-6-2q-1.3-7.3-1.2-14.6l-.1-2.3c0-3.1 0-5.5 1.5-8.3 2.6-2.5 4.2-2.3 7.8-2.3m-6 6.5c-1 2.4-1 2.4-1 5l1.5 3c1.7 3.4 1.6 4.5.5 8a16 16 0 0 0 7.4 4.6 12 12 0 0 0 6-3.2c1.9-1.4 1.9-1.4 3.6-2.4 2.6.8 2.6.8 5 2 2.5-.1 2.5-.1 5-1 1.6-2.5 1.6-2.5 2.8-5.5l1.3-3.1.9-2.4c4.8 4.6 4.8 4.6 6.2 7.6 1.8 2.4 1.8 2.4 5.7 3.5l4.5.5 2.3.4c4 .5 5.8.4 9.3-2 2.4-3.5 2.7-5.4 2.6-9.6V333c-.6-3-.6-3-2.5-5-4.5-1.5-8.6-1-13.4-.7l-2.8.2-7 .5v2l-3.1-1.5c-6-2.2-11.8-2-18-2h-10.1c-3.4.6-4.5 1.8-6.7 4.5"/><path fill="#cc1d51" d="M522 402c5.1 2.5 6.9 9 9 13.9 1 2.1 1 2.1 3.2 4.9 1.8 2.2 1.8 2.2 2.2 4.8-.5 2.9-1.2 3.6-3.4 5.4-1.9.4-1.9.4-4.1.4h-2.5l-2.5-.1h-2.5A65 65 0 0 1 505 429c-.6-1.8-.6-1.8-1-4 1.5-3 1.5-3 3.7-6.2q3.7-5.5 6.5-11.5c2-3.6 3.6-5.3 7.8-5.3"/><path fill="#4a252e" d="M416 182c5-.3 7.9 0 12 3 1 1 1 1 1.3 3.9-.3 3.1-.3 3.1-1.8 4.8a68 68 0 0 1-8.4 3.5c-2.1.8-2.1.8-5.3 2.4-5.2 2.4-11.2 2.2-16.8 2.4v2c-3 2-3 2-6.5 1.8-3.5-.8-3.5-.8-5.4-1.9-1.8-3.2-1.7-6.4-1.1-9.9 1.5-2.5 1.5-2.5 4-4 2.8-.3 5.2-.2 8 0l1-4c4.9-.6 7.1 1.3 11 4 2.2.9 2.2.9 4 1 2.7-2.7 3.1-5.4 4-9"/><path fill="#4a242e" d="M408 97q-.7 4.2-2.2 7.9c-.8 3.1-.8 3.1.6 6.5l1.6 2.6h-2v-2h-2c-1.4-2.8-1.1-5-1.1-8.1l.1-3.3V98c-11.7-3.3-29.3 3-40 8a60 60 0 0 0-10 8l-1.8 1.7-1.2 1.3a27 27 0 0 1 12-14q5.7-2 11.6-3.1c3.3-.9 5.5-2.1 8.4-3.9 7.8-2.7 18.9-3.7 26 1m0 17 3.8 2.8 2.2 1.6a31 31 0 0 1 5 4.6v2c6.2 1.8 9.7 1.9 16 0l4.7.6c4 .6 4 .6 6.7-1.4l3.6-5.2c4-.4 6.8-.4 10.6.9 5.5 4.7 9.6 11 13.4 17.1l1.4 2.2c3.7 6 3.7 6 3 10.2-1.4 2.6-1.4 2.6-3.4 5.6l-1 5h-1l.4-4.2.3-2.3c.3-2.5.3-2.5.9-5 .9-5.6-2.4-10.8-5.5-15.3L463 126l-1.5-1.7c-2.4-2-4.6-2.2-7.6-2.5-1.9.2-1.9.2-4.3 2.6L448 127c-3.8 1.9-8.5 1.6-12.7 1.8l-3 .2c-6.4.4-10-.1-15.3-4-2.7-2.5-2.7-2.5-5-5l-2.3-2.2C408 116 408 116 408 114m64 46c2.6 2.6 3.6 5.6 5 9l1.4-1.3 1.8-1.8 1.9-1.7c1.9-1.2 1.9-1.2 4.1-1.1l1.8.9c1.2 3.6 1.3 6.2 1 10-1.5 2.9-1.5 2.9-3 5-2.4-.2-2.4-.2-5-1-1.3-2.6-1.3-2.6-2-5-3.7 1.4-3.7 1.4-4.8 3.8-.2 2.2-.2 2.2 1.2 4.3l2 2.1 2 2.2 1.6 1.6-1 2a19 19 0 0 1-8-8c-1.1-6.9-.5-14.1 0-21"/><path fill="#d65e4e" d="M531 494.5c4.4 0 7.2.1 10.6 3l2.4 2.5.5-2c.5-2 .5-2 1.5-3l5.9-.2h3.2c2.9.2 4.5.5 6.9 2.2 1.2 2.7 1.2 2.7 1 6a18 18 0 0 1-8.3 8.1c-4-.2-7.1-1.6-10.7-3v3l-3.1.3c-4 .6-4 .6-6.5 1.3-3.4.4-4.7-.6-7.4-2.7-.5-2.8-.5-2.8-.4-6v-3.2c.5-3.2 1-5.5 4.4-6.3"/><path fill="#f4e64c" d="M371 563c4 1.3 4.5 3.4 6.4 7 1.6 2 1.6 2 7.6 5l-4 16c-5 1-5 1-7.9.5-3.6-.6-6.5-.1-10.1.5l-1.5-6.2-.8-3.5q-.9-4.2-.7-8.3l3.2-1.6c4.3-2.3 5.7-5.1 7.8-9.4m-56 3c4.5.5 6.6 2.1 10 5l6 4a35 35 0 0 1-6 16c-3 1-4.3 1-7.4.6l-2.4-.3q-3.6-.5-7.2-1.3a32 32 0 0 1-2-15c2.8-2.8 2.8-2.8 6-5 1.9-2.3 1.9-2.3 3-4m161 0c4 0 4 0 5.9 1.8l2.1 2.2 3.1 2c4.3 2.9 4.3 2.9 4.9 6-1.2 2.3-1.2 2.3-3 5l-1.4 3.7c-1.6 3.3-1.6 3.3-3.4 4.5-2.8 1-4.8.9-7.8.6l-2.8-.3c-2.6-.5-2.6-.5-5.6-2.5a38 38 0 0 1-2-13c2.6-3 2.6-3 6-5l2.1-2.8zm-49-1 5 5 1.8 1.7c1.2 1.3 1.2 1.3 1.2 3.3l3 1c.6 5.2-.7 8.2-3.6 12.4-1.4 1.6-1.4 1.6-3.6 2.6H428l-2.2.1c-6.4.1-6.4.1-8.8-1.1-1.1-2.5-1.1-2.5-2.2-5.8l-1.1-3.1c-.7-3.3-.9-5 .3-8.1 1.9-1.5 1.9-1.5 4.3-2.6q4.6-2.2 8.7-5.4"/><path fill="#fafafa" d="m394.8 103.9 2.2 1v10l-2.4-.2-3.2-.4-3.2-.4c-4 .2-5.9 1.8-9.2 4q-5.7 1.4-11.6 2.2c-3.7 1-5 2-7.4 4.9l-4-2c.2-4 .6-5.6 3.4-8.5a36 36 0 0 1 23.3-9l2.3-.2c2-.3 2-.3 4.7-1.5 2.3-.8 2.3-.8 5.1 0"/><path fill="#e39d4e" d="M427.5 560.2c3.6 1.2 4.3 3.6 6.1 6.8 1.6 2.3 2.6 2.8 5.1 3.8 3.3 1.2 3.3 1.2 4.1 3 .3 2.9-.6 4.7-1.7 7.5a23 23 0 0 0-2.2 10.2c.1 3.5.1 3.5-1.4 5.5l-1.5 1-2.6-2c-5.7-3.5-13-1.7-19.4-1l-.6-2.4c-2.3-9.6-2.3-9.6-4.1-13.5-1.5-3.5-1.6-4.6-.3-8.1 2.3-1.4 2.3-1.4 5.3-2.5 6.1-2.5 6.1-2.5 8.6-5.3 2.1-2.2 2.1-2.2 4.6-3m-.5 4.8-1.8 1.3-2.5 1.6-2.3 1.6c-2.4 1.5-2.4 1.5-4.6 2.4-1.8 1-1.8 1-2.7 3.3-.1 3.4.6 5.9 1.7 9l1.1 3.3c1.1 2.5 1.1 2.5 3.1 3.5 5.2.5 10.3.5 15-2 2.8-3.3 3.9-6.1 4.3-10.4l-.3-2.6-3-1v-2l-3-3z"/><path fill="#a2a2a2" d="M417.6 157.7c2.4.3 2.4.3 4.1 2.2l1.4 2.5c2 3.2 2.7 4.5 6 6.6v2h2v2l-4-2v-2l-4-2v-2h-2l-1.8-2c-2.5-2.1-3.8-2.6-7-2.5-4.3.9-8.3 2.7-12.2 4.4-3 1-5 1.4-8 1 6.2-6.2 17-7.2 25.5-8.2M392 166a22 22 0 0 1-7 2.6c-3 1.4-3 1.4-4.6 4.7l-1.2 4.2-.6 2q-2 7.6-3.2 15.3c-.5 2.3-1.3 4-2.4 6.2-.2 5.7 2.8 8.6 6.5 12.5l1.5 1.5c-3 0-3 0-4.5-1.4l-1.5-2a59 59 0 0 0-6-6.6c.1-2.5 1-4 2.4-6 2.2-4.1 2.8-8.2 3.6-12.7q1.7-10 5-19.3 5.8-1.3 12-1m39 7c10.3 8.3 10.3 8.3 13 13 0 3.5 0 3.5-1 7l-1 3.9q-.1 1-.5 2l-1.5 6.6q-1 4.5-2.6 8.6A41 41 0 0 0 435 225h-10v-1l3.2-.2c2.8-.8 3.6-1.4 5-4q1.6-4.8 2.8-9.8l1.3-4.6L441 192l.6-2c.4-2 .4-2-1-4.8q-3.8-4.7-8.2-8.7C431 175 431 175 431 173m-50 43q6.6 2.9 10.3 9.2a26 26 0 0 0 4.7 5.8c7 1.5 14.5-2.4 20.8-5 3-1 5.1-1.2 8.2-1a80 80 0 0 1-29 10q-3-3.5-5.5-7.5c-1.5-2.5-1.5-2.5-4-4.5-2.7-2.1-4-4-5.5-7"/><path fill="#d65f4e" d="M416 494c3.5 2.5 7.1 5.1 9 9 .4 6.5.4 6.5-2 10-5.3.5-5.3.5-8 0l-1.8-1.5c-3.2-2.2-6.2-1.5-9.8-1.1-7.2.7-7.2.7-9.4-.4v-2h-2l1-2q4-.7 8-1l.4-3.4c.6-3.6.6-3.6 2.6-5.6a20 20 0 0 1 12-2"/><path fill="#e39d4e" d="M475 561c4.1.5 6.3 1.7 9.4 4.3q3.9 3.3 8.1 5.8c2.5 1.9 2.5 1.9 3.6 4.3-.1 3.4-1.4 5.6-3.1 8.6h-2l-2 11c-4.5 1.1-5.8.5-10-1-3.2-.4-4.4-.5-7 1.6-2 1.4-2 1.4-4.6 1l-2.4-.6-.1-2.3a35 35 0 0 0-4.2-16.8c-.7-1.9-.7-1.9-.6-4.1.9-1.8.9-1.8 2.8-2.6l2.3-.5c5.4-1.5 7-4 9.8-8.7m1 5-4 5-3.4 2c-2.6 3-2.6 3-2.7 6.1.4 3.6.8 6.6 2.1 9.9a28 28 0 0 0 16 3c4.5-3.6 6.2-9.6 8-15a59 59 0 0 0-11-9l-1-2zm-106-6c2.1 0 2.1 0 5 1l2.9 3.9c2.1 3.1 3.4 4.6 7 5.6l3.1.5c1.4 5.6.8 8-2 12.9-1.4 3-1.6 5.8-1.7 9.1-.3 2-.3 2-2.3 5l-6-2v-2c-6.6-.2-6.6-.2-10 2-2.7-.4-2.7-.4-5-1l-.9-3.1-.5-1.9-1.5-5.7c-1.1-3.3-1.1-3.3-2.8-5.3-1.3-2-1.3-2-1-5.8l.7-3.2 2.2-.4c6.1-1.3 8.5-3 11.9-8.1zm1 3-.9 1.6c-2.7 4.8-4.7 7.4-10.1 9.4q.8 9 3 18l2.2-.3c5.1-.5 9.7-.9 14.8.3 3-5.1 3.9-11.2 5-17l-1.6-.9A18 18 0 0 1 374 564zm-56-2c4.6.1 6.9 2.4 10.1 5.4q3 2.4 6.3 4c3.2 1.9 3.5 2.2 4.4 5.9-.9 4-2.3 6.4-4.6 9.7-1.8 3-2 5.6-2.2 9-3.9 1.5-6.2.3-10-1h-7v2l-5 2c-2.8-2.8-2.5-5.2-2.9-9.2-.7-5.4-1.6-9.9-4.1-14.8v-3l2-.4c8.2-2.1 8.2-2.1 10.6-5.7l1.4-2.9zm0 5q-2 2.2-3.8 4.5c-1.2 1.5-1.2 1.5-3.5 2.9-1.7 1.6-1.7 1.6-2.1 5.3.2 4.5 1.6 8.2 3.4 12.3h1.8c6.8-.1 6.8-.1 10 .8 2.2.2 2.2.2 4.3-1.2 3.1-4.2 6-8.8 5.8-14.2-1.2-3.1-2.5-3.9-5.3-5.6a31 31 0 0 1-6.6-4.8z"/><path fill="#d02951" d="M472 554c8 .2 8 .2 11.8 3.3l2.2 2.7c4.4 3.6 6.4 5.1 12.1 5.1l2.8-.1h2.1c2.1 3.8 2.2 5.8 1 10l-1.9 2.2A27 27 0 0 0 497 590a35 35 0 0 0 2 6c-.1 2.8-.1 2.8-1 5-4.2 2.6-8.2 2.6-13 2-3.1-1.4-3.1-1.4-5-3v-2h-5l-.7 1.9c-1.3 2.1-1.3 2.1-3.4 2.8l-2.3.2-2.4.2c-2.2-.1-2.2-.1-5.2-2.1q-.5-3.8-.5-7.8c-.1-5.4-.5-9.4-3.5-14.2l-3-2c-.3-2.3-.3-2.3-.2-5v-2.7c.2-2.3.2-2.3 1.2-4.3 3.2-1.2 5.5-.9 8.8-.1l2.4.6 1.8.5c-3.2 2.1-4 2.2-7.7 2.1h-2.4l-1.9-.1c1.7 9.2 1.7 9.2 5 13 1.5 4.5 1.4 9.1 1.7 13.8.3 3.2.3 3.2 1.3 5.2 5.3.5 7-.7 11-4 2.4-.5 2.4-.5 5 0l2.9 2c3.5 2.3 5.1 2.5 9.1 2l3-2-.4-2.2-.6-2.8-.8-2.2c-.3-4 1.4-6.6 3.2-9.9 3.6-6.6 3.6-6.6 3.6-9.9l-1.8-.7a59 59 0 0 1-16.3-10.1c-2.9-2.2-2.9-2.2-5.5-2.8-3.1.8-4.4 2.2-6.4 4.6z"/><path fill="#4a242e" d="M480 189c3.8 1.5 5.8 3.6 8 7 2.1 7.3-.6 12.8-3.5 19.4q-1.7 4.2-2.8 8.6c-1.5 5.1-4 8.3-7.7 12l-1-2 1.1-1.4c5.4-7.3 7.6-15 9.9-23.6l.8-2.8c1.4-5.2 1.1-8.3-.8-13.2h-2zm-8 47 1 2c-2 3-2 3-5 4l-8.4.6c-2.6.4-2.6.4-5.6 2.4-.6 2.6-.6 2.6-1 5.7-1.4 9.2-1.4 9.2-4 13.3a67 67 0 0 1-7 3.7c-2 1.3-2 1.3-3 6.3l10-3a11 11 0 0 1-5.8 5.1l-2 .9c-4.3 2-8 3.3-12.8 3.8l-2.8.2c-2.8 0-4.2-.6-6.6-2l1-3q3.9-1.9 8.2-2.7c4.4-1.2 7.8-3.9 11.4-6.6 2.4-1.7 2.4-1.7 5.1-2.6 2.3-1.1 2.3-1.1 3.6-3.3q1.5-6.3 2-12.8c.7-3.2 1.1-4.2 3.7-6 2.3-.7 2.3-.7 4.8-1.1 10-1.7 10-1.7 13.2-4.9"/><path fill="#d02951" d="m433 555 4 10 7.6-.1c2.4.1 2.4.1 4.4 1.1 1.2 3.7 1.4 6.1 1 10a49 49 0 0 1-3.8 6.2c-3.1 4.7-2.5 10.2-2.7 15.6l-.5 3.2c-3.7 2.5-5.6 2.5-10 2l-5-4c-3.3.1-5.3 1.2-8.2 2.6-4.7 1.7-8 1.3-12.8.4a19 19 0 0 1-1.2-11.9c.5-5.7-1.8-10.4-4.8-15.1v-3l-3-1v-2h2v-3q4.1-1.2 8.4-1.4c4.1-.4 7.1-1.2 10.6-3.6l4-6c3.7-1.2 6.2-.6 10 0m-10.7 4.2L420 562a20 20 0 0 1-9.6 4.6c-5.2 1.2-5.2 1.2-7.4 3.4-.5 4 .5 6.2 2.6 9.6 2.8 5.2 2.5 9 1.4 14.7 0 2.7 0 2.7 1.8 5.1 2.2 1.6 2.2 1.6 5.6 1.5 3.6-.9 3.6-.9 6.7-2.5 2.9-1.4 2.9-1.4 5.6-1.3 2.3.9 2.3.9 3.6 2.5 2.1 1.7 3.1 1.7 5.8 1.8l3.9-.4c2.2-3.3 2.1-3.9 1.9-7.6-.1-4.8.9-7.8 3.1-12.1 1.7-3.9 2.3-8.1 3-12.3-3-2-3-2-6.5-2s-3.5 0-6.5-2l-1.2-3.6c-1.8-3.4-1.8-3.4-5.2-4.6-3.6.2-3.6.2-6.3 2.4"/><path fill="#e39d4e" d="M525 399c4.1 3.6 5.3 8.4 7 13.4 1.2 3.1 2.8 5.2 5 7.6 1.9 3.1 2.6 5.4 2 9a13 13 0 0 1-11.2 4.5h-3.5l-3.7-.1-3.7.1c-6.2-.1-10.5-.3-15.9-3.5-1.1-1.8-1.1-1.8-1-4 1.3-2.9 1.3-2.9 3.1-6.1q3.5-6.1 6.7-12.4c3.4-7 3.4-7 5.2-9.5 4.1-1.4 6-.5 10 1m-9 5c-1.2 1.7-1.2 1.7-2.3 3.8l-1.1 2.2-1.2 2.4-2.3 4.6-1.1 2.1c-1 1.9-1 1.9-2.8 4.2-1.2 1.7-1.2 1.7-.9 3.9l.7 1.8a75 75 0 0 0 19.4 2.3l2.4.1c5.7 0 5.7 0 7.9-1.8 1.3-1.6 1.3-1.6 1.7-4.1-.5-2.9-1.2-4-3.2-6.2-3-3.8-4.7-7.5-6.2-12.1-1.1-2.4-2-3.6-4-5.2-3.2 0-4.4.3-7 2"/><path fill="#4a242e" d="M333 214c2.1 1.7 2.1 1.7 3 4-.1 3.1-.8 4.6-2.5 7.2A22 22 0 0 1 322 229l-2-1c-.5-4.8-.7-8 2-12.1 4.1-2.6 6.1-2.6 11-1.9m-25 3c3.4 1.7 4.6 4.8 6.4 8 1.6 2 1.6 2 5.6 3l1 11c-3-3-5-6-7.1-9.6l-1.1-1.7q-2-3.3-3.8-6.7h-5v2l-2.4 1.2-3 1.7-3.1 1.6C293 229 293 229 292 231l-4.6 1.8A45 45 0 0 0 275 240l-2-1c9.5-8.1 9.5-8.1 13.8-9.8 3.4-1.3 5.4-2.9 8.2-5.2q3-1.6 6.1-3c1.9-1 1.9-1 3.4-2.7 1.5-1.3 1.5-1.3 3.5-1.3m105.4-55.3c4.7 1.7 7.1 4.5 10.4 8a41 41 0 0 0 5.3 4.9c3.7 3 6.7 6.7 10 10.4q.3.5 1 1v6c-2-3.7-2-3.7-2-6h-2v-2l-3-1c-1.5-1.6-1.5-1.6-2.8-3.6A43 43 0 0 0 414 165c-3.5.2-5.7.8-8.8 2.5-4.6 2-9 2.4-14 2.9-3.3.6-4.4.9-6.2 3.6l-1.5 5.9q-1 3.7-2.7 7-2.3 6.5-3.8 13c-3-7.4 3.1-19.8 6-27 1-2 1-2 4-4l7.2-1.3c4.4-.8 8.3-1.6 12.3-3.8 3.5-1.8 3.5-1.8 7-2.1M438 192c1.1 3.3 1 3.9-.2 7l-.8 2.3-.8 2.5-1.7 4.7-.8 2.3q-1.5 4.4-2.7 9.2c-3-9.1 3.2-19.8 7-28m-63 8 .8 1.8c1.2 2.3 2.7 4 4.5 6l1.8 2.2 4.8 4.9c2.1 2 2.1 2 2.1 4l1.6.8c2.4 1.3 2.4 1.3 4.6 4 2.8 2.3 2.8 2.3 6.4 2.3q6-1.4 11.8-3.3c3.4-1 6.8-1.2 10.3-1.5q3.2-.3 6.3-1.2c-2.3 3.2-4.9 3.6-8.6 4.2q-1.2 0-2.2.3c-5.6.9-10 2.2-15.2 4.5-3.2.7-5 .7-7.7-1a72 72 0 0 1-8-7.7l-5.8-5.8-1.9-2c-3.9-4.1-5.5-6.7-5.6-12.5m59-96q3.2 2.1 6.1 4.5c1.9 1.5 1.9 1.5 4.1 2.4 1.8 1.1 1.8 1.1 2.6 3.2l.2 1.9a27 27 0 0 1-11.1 5.6c-4-.8-6-2.8-8.9-5.6l-2.4-1.9c-2.2-2.8-2-4.6-1.6-8.1 2.2-4.5 6.9-3 11-2"/><path fill="#d65b4f" d="M522 402c5.1 2.5 6.9 9 9 13.9 1 2.1 1 2.1 3.2 4.9 1.8 2.2 1.8 2.2 2.2 4.8-.5 2.9-1.2 3.6-3.4 5.4-1.9.4-1.9.4-4.1.4h-2.5l-2.5-.1h-2.5A65 65 0 0 1 505 429c-.6-1.8-.6-1.8-1-4 1.5-3 1.5-3 3.7-6.2q3.7-5.5 6.5-11.5c2-3.6 3.6-5.3 7.8-5.3m-2 4c-3.8 3.1-5.2 6.5-7.1 10.9-.9 2.1-.9 2.1-2.7 4.4-1.2 1.7-1.2 1.7-1.2 5.7 3.7 1.8 8 1.4 12 1.6l2.8.2 2.7.1 2.5.1c2 0 2 0 4-1 .4-2.1.4-2.1 0-5l-4.5-5.1c-1.6-2-2.3-3.7-3.1-6.2-1.4-3.7-1.4-3.7-3.6-5.2zm0 86c1.3 6.2 2.7 14.4-1 20-2.6.8-2.6.8-5 1v-2l-2.2-.3c-3.1-.8-4.7-1.4-6.8-3.7-.6-3.7-.3-5.4 1.6-8.6 4-4 7.6-6.4 13.4-6.4"/><path fill="#e39d4e" d="m350 331 2 2c-.3 3.8-1.3 6.3-4 9-2.4.2-2.4.2-5.1-.1l-2.7-.3-2.2-.6-1-2-2 2-2-2-1.2 1.4c-2.2 2-3.9 2.2-6.8 2.6a38 38 0 0 1-6-9c2.9-.9 5.1-1.4 8-.2l5 3.2 2.4-1.5c2.6-1.5 2.6-1.5 4.6-1.5l1-3a17 17 0 0 1 10 0"/><path fill="#d65b4f" d="M291 492.9h2.6l2.5.1h1.9c1 3.3 1.2 5.9 1.3 9.4v3.5c-.3 3.4-1 4.7-3.3 7.1-2.5.6-2.5.6-5 0-3.1-4-3.3-7.2-3.2-12.3V497c.3-4 .3-4 3.3-4.1M243 494a52 52 0 0 1 0 7.9l-.1 2.2c-.1 2.2-.1 2.2-.9 5.9-2.4 2-2.4 2-5 3-2.6-.7-3.6-1.5-5.2-3.7a20 20 0 0 1 .3-13.2c1.9-3.1 1.9-3.1 4.9-4.2 3 .1 3 .1 6 2.1m33-3 5 1-1 3-3 1 .5 1.7q.7 3.4.7 6.9v2.4c-.2 2-.2 2-2.2 4-4.2.5-6.2.6-9.6-1.9-1.9-4.1-1-6.1.5-10.2 1.1-1.9 1.1-1.9 4.1-2.9v-2l1.9-.4 2.1-.6z"/><path fill="#4f2f38" d="m486.2 163.1 1.8 1c1.2 3.4 1.3 6.1 1 10-1.5 2.8-1.5 2.8-3 5-2.3-.3-2.3-.3-5-1-1.3-2.7-1.3-2.7-2-5-3.7 1.3-3.7 1.3-4.8 3.7-.2 2.2-.2 2.2 1.3 4.3l2 2.1 2 2.2 1.5 1.6-1 2a28 28 0 0 1-8-8c-.4-5.2.2-9.9 1-15h2l2 3 1.4-1.4 1.9-1.7 1.8-1.7c1.9-1.2 1.9-1.2 4-1"/><path fill="#e8235c" d="M173 492h3v4h2v4h-2v4l-3-1 .6-2.7c.4-3.2.2-5.2-.6-8.3m5 12v4h-2l1.1 1.5c1.4 3.7.6 6.6-.1 10.5h1c.2 6.1.2 6.1 0 8l-2 2 2 2q.3 4 0 8c-1.9-1.1-1.9-1.1-4-3a30 30 0 0 1 0-13l-.5-1.7c-.7-3.3-.4-6.6-.2-10l.1-2.1.6-5.2c2-1 2-1 4-1m-4 34c2 2 2 2 2 6h2v4h-2l-2 4c-.9-2.6-1.1-3.6-.1-6.2l1.1-1.8h-2v-5z"/><path fill="#e39d4e" d="M405 332c5.2.1 5.2.1 8 1 2 2.6 2 2.6 3 5-1.1 2-1.1 2-3 4-3 .2-3 .2-6.5-.2l-3.5-.3c-3-.5-3-.5-6-1.5l-1-3 3.4-1.4c3.6-1.6 3.6-1.6 5.6-3.6"/><path fill="#d02951" d="M520 406c2.7 1 3.8 1.6 5.1 4.2l.8 2.6c1.7 4.5 3.7 6.9 7.1 10.2.3 2.8.3 2.8 0 5-5.1.9-9.6 1-14.8.6l-4-.2c-3.2-.4-3.2-.4-5.2-1.4.6-5.6.6-5.6 2.4-7.4 2.6-2.6 3.3-5.9 4.5-9.3 1.1-2.3 1.1-2.3 4.1-4.3m1 2a35 35 0 0 0-9 18l2.7.2 3.5.2 3.6.3c3.2.3 3.2.3 5.4.9 1.8.4 1.8.4 4.8-.6-.2-1.8-.2-1.8-1-4l-2.4-1.7c-3.3-2.9-3.5-5.1-4-9.3-.6-2-.6-2-3.6-4"/><path fill="#d65b4f" d="M250 496c3.9 1.3 5.4 3.7 7.3 7.2 1 2.6.6 4.3-.3 6.8l-1 2-4 1v-2l-1.9-.2c-2.1-.8-2.1-.8-3.5-2.9-.8-4.1.5-7.1 2.4-10.9z"/><path fill="#7b8381" d="M426 106c5.4.4 8 1.4 12 5l5 3c-1 3-1 3-3.6 4.5-4.5.7-6.2-.7-9.9-3.1L428 114v-2h-2c-1.1-3.8-1.1-3.8 0-6"/><path fill="#d65b4f" d="M318 497c2.8 4.8 3.5 8.6 4 14-3.4 1.1-4.7 1.2-8 0-1.9-2.1-1.9-2.1-3-5 .2-3 .9-5.1 2-8 3-1 3-1 5-1"/><path fill="#e8235c" d="M173 428h3v4h2v4h-2v4l-3-1 .6-2.7c.4-3.2.2-5.2-.6-8.3m5 12v4h-2v4h2v4h-2v4l-3-1 .5-2.5q.8-5.7.5-11.5c2-1 2-1 4-1m0 16v4h-2v5l-2 1v-9c2-1 2-1 4-1"/><path fill="#e39d4e" d="M450 330c1.9 1.6 1.9 1.6 3 4 0 3.1 0 3.1-1 6-2.6 1.4-2.6 1.4-5 2-4.9-5.3-4.9-5.3-5.3-8.9l.3-2.1c2.8-1.4 4.9-1.3 8-1"/><path fill="#191012" d="M437 273v4a28 28 0 0 1-14 4c-2.5-.9-2.5-.9-4-2 1-3 1-3 3.2-4.1 5-1.6 9.6-2 14.8-1.9"/><path fill="#7b8381" d="M420.9 183.8c3 .1 3 .1 5 1.3 1 1.8 1 1.8.8 4.6l-.7 2.3c-3.3 1.2-3.3 1.2-7 2l-3-2c1-8 1-8 4.9-8.2m-91.9 32c3 .1 3 .1 5 2.1-.2 2.7-.2 2.7-1 5-3.2 2.3-4.3 2.5-8 2-2-3-2-3-1.8-5 1.3-3.2 2.3-3.8 5.8-4.2"/><path fill="#e7235b" d="M176 354h2q.3 5-1 10h1v12h-2l-2 2c-1-3-1-3 0-6l-1-4-.1-5.8.1-2.9V357l3-1z"/><path fill="#e39d4e" d="M387.3 329.6c2.7.4 2.7.4 5 3l1.7 2.4-2 4c-3.7-.5-5.8-.9-9-3 1-5.9 1-5.9 4.3-6.4"/><path fill="#7b8381" d="M389 192c2.6.9 2.6.9 5 2v7l-2 2c-2.5-.1-2.5-.1-5-1-1.4-1.8-1.4-1.8-2-4 .8-2.7.8-2.7 2-5z"/><path fill="#e8235c" d="M176 322h2v6l-2-1 1 5h1v12h-1v-5l-4 1 .6-2.4c.5-4.4 0-8.3-.6-12.6l3-1zm-1 18c.6 1.9.6 1.9 1 4l-2 2-1-3zm-1 128h2c2.6 3.9 2.2 7.5 2 12h-2l1 1.5c1.4 3.6 1.1 6.6 1 10.5l-2-3-2 1c-1-3-1-3 0-6l-1-4-.1-5.7v-2.9c.1-2.4.1-2.4 1.1-3.4m0-64h2c2.6 3.9 2.2 7.5 2 12h-2l1 1.5c1.4 3.6 1.1 6.6 1 10.5l-2-3-2 1c-1-3-1-3 0-6l-1-4-.1-5.7v-2.9c.1-2.4.1-2.4 1.1-3.4"/><path fill="#e39d4e" d="M290 330h5l4 7-3 3c-3.7-1.2-4.8-1.7-7-5 .4-2.7.4-2.7 1-5m230 2c3.5.5 3.5.5 5 2l-1 7c-3.9-.9-3.9-.9-5-2h-7l1-4 2.4-.4c2.6-.6 2.6-.6 4.6-2.6"/><path fill="#e8235c" d="M173 380h5v8h-2v4l-3-1 .6-2.7c.4-3.2.2-5.2-.6-8.3m1 2 1 2Zm4 10v4h-2v5l-2 1v-9c2-1 2-1 4-1"/><path fill="#e7225b" d="M174 530h2c2 2 2 2 2.2 3.9l-.2 6.1c-2-1.1-2-1.1-4-3-.2-3.7-.2-3.7 0-7m0 8c2 2 2 2 2 6h2v4h-2l-2 4c-.9-2.6-1.1-3.6-.1-6.2l1.1-1.8h-2v-5z"/><path fill="#7b8381" d="M401 191c4.4.7 8 2.2 12 4-1.9 2.4-3 3-6 3.8-3 .2-3 .2-6-1.8-.2-3.1-.2-3.1 0-6"/><path fill="#e6225b" d="m178 301 2 1c-.6 3-1.3 4.4-3 7 .4 2.2.4 2.2 1 4h-3l.6 2.8c.4 3.2.4 3.2-1.6 6.2-2.2-13-2.2-13 .5-17.5l1.5-1.5 2 1zm-3 8 1 3Z"/><path fill="#e8235c" d="m176 552 2 1v3h-2zm-2 3c2 1.2 2 1.2 4 3 .2 2.7.2 2.7 0 5l-3 1-3-3z"/><path fill="#e39d4e" d="M273 331c2.1.4 2.1.4 4 1 .6 2.9.6 2.9 1 6l-2 2-3-1-1-7zm1 9 2 1Z"/><path fill="#dd2557" d="m363 285 3.9.3 2.2.2c1.9.5 1.9.5 3.9 3.5-1 1-1 1-3.3 1.1h-2.8l-2.7-.1H362c0-3 0-3 1-5"/><path fill="#e8235c" d="M408 293v3l4 1-4.3.1h-2.4c-2.3-.1-2.3-.1-5.3-1.1v-2c2.9-.8 4.9-1 8-1m4 0 4 2-4 1z"/></svg>